<?xml version="1.0" encoding="UTF-8" standalone="no"?>
<!DOCTYPE svg PUBLIC "-//W3C//DTD SVG 1.1//EN"
 "http://www.w3.org/Graphics/SVG/1.1/DTD/svg11.dtd">
<!-- Generated by graphviz version 2.40.1 (20161225.0304)
 -->
<!-- Title: dependencies Pages: 1 -->
<svg width="3120pt" height="284pt"
 viewBox="0.00 0.00 3120.00 284.00" xmlns="http://www.w3.org/2000/svg" xmlns:xlink="http://www.w3.org/1999/xlink">
<g id="graph0" class="graph" transform="scale(1 1) rotate(0) translate(4 280)">
<title>dependencies</title>
<polygon fill="#ffffff" stroke="transparent" points="-4,4 -4,-280 3116,-280 3116,4 -4,4"/>
<text text-anchor="start" x="1535.0091" y="-42.4" font-family="sans-serif" font-weight="bold" font-size="14.00" fill="#000000">Legend</text>
<polygon fill="#ffffb3" stroke="transparent" points="1322,-10 1322,-30 1342,-30 1342,-10 1322,-10"/>
<text text-anchor="start" x="1345.629" y="-15.4" font-family="sans-serif" font-size="14.00" fill="#000000"> &#160;Declarations</text>
<polygon fill="#8dd3c7" stroke="transparent" points="1435,-10 1435,-30 1455,-30 1455,-10 1435,-10"/>
<text text-anchor="start" x="1458.7251" y="-15.4" font-family="sans-serif" font-size="14.00" fill="#000000"> &#160;Module</text>
<polygon fill="#80b1d3" stroke="transparent" points="1521,-10 1521,-30 1541,-30 1541,-10 1521,-10"/>
<text text-anchor="start" x="1544.7812" y="-15.4" font-family="sans-serif" font-size="14.00" fill="#000000"> &#160;Bootstrap</text>
<polygon fill="#fdb462" stroke="transparent" points="1618,-10 1618,-30 1638,-30 1638,-10 1618,-10"/>
<text text-anchor="start" x="1641.6732" y="-15.4" font-family="sans-serif" font-size="14.00" fill="#000000"> &#160;Providers</text>
<polygon fill="#fb8072" stroke="transparent" points="1714,-10 1714,-30 1734,-30 1734,-10 1714,-10"/>
<text text-anchor="start" x="1737.7258" y="-15.4" font-family="sans-serif" font-size="14.00" fill="#000000"> &#160;Exports</text>
<g id="clust1" class="cluster">
<title>cluster_BimAssistantModule</title>
<polygon fill="none" stroke="#000000" stroke-dasharray="1,5" points="8,-70 8,-268 3104,-268 3104,-70 8,-70"/>
</g>
<g id="clust2" class="cluster">
<title>cluster_BimAssistantModule_declarations</title>
<polygon fill="none" stroke="#000000" points="912,-78 912,-130 3096,-130 3096,-78 912,-78"/>
</g>
<g id="clust15" class="cluster">
<title>cluster_BimAssistantModule_imports</title>
<polygon fill="none" stroke="#000000" points="646,-78 646,-130 904,-130 904,-78 646,-78"/>
</g>
<g id="clust16" class="cluster">
<title>cluster_BimAssistantModule_exports</title>
<polygon fill="none" stroke="#000000" points="1454,-208 1454,-260 1630,-260 1630,-208 1454,-208"/>
</g>
<g id="clust18" class="cluster">
<title>cluster_BimAssistantModule_providers</title>
<polygon fill="none" stroke="#000000" points="16,-78 16,-130 638,-130 638,-78 16,-78"/>
</g>
<!-- BimAssistantComponent -->
<g id="node1" class="node">
<title>BimAssistantComponent</title>
<polygon fill="#ffffb3" stroke="#000000" points="3088.2772,-122 2931.7228,-122 2931.7228,-86 3088.2772,-86 3088.2772,-122"/>
<text text-anchor="middle" x="3010" y="-99.8" font-family="Times,serif" font-size="14.00" fill="#000000">BimAssistantComponent</text>
</g>
<!-- BimAssistantModule -->
<g id="node13" class="node">
<title>BimAssistantModule</title>
<polygon fill="#8dd3c7" stroke="#000000" points="1609.4944,-187 1606.4944,-191 1585.4944,-191 1582.4944,-187 1474.5056,-187 1474.5056,-151 1609.4944,-151 1609.4944,-187"/>
<text text-anchor="middle" x="1542" y="-164.8" font-family="Times,serif" font-size="14.00" fill="#000000">BimAssistantModule</text>
</g>
<!-- BimAssistantComponent&#45;&gt;BimAssistantModule -->
<g id="edge1" class="edge">
<title>BimAssistantComponent&#45;&gt;BimAssistantModule</title>
<path fill="none" stroke="#000000" d="M3010,-122.1532C3010,-145.7566 3010,-184 3010,-184 3010,-184 1619.8605,-184 1619.8605,-184"/>
<polygon fill="#000000" stroke="#000000" points="1619.8605,-180.5001 1609.8605,-184 1619.8605,-187.5001 1619.8605,-180.5001"/>
</g>
<!-- DrgsTreemapComponent -->
<g id="node2" class="node">
<title>DrgsTreemapComponent</title>
<polygon fill="#ffffb3" stroke="#000000" points="2913.2921,-122 2754.7079,-122 2754.7079,-86 2913.2921,-86 2913.2921,-122"/>
<text text-anchor="middle" x="2834" y="-99.8" font-family="Times,serif" font-size="14.00" fill="#000000">DrgsTreemapComponent</text>
</g>
<!-- DrgsTreemapComponent&#45;&gt;BimAssistantModule -->
<g id="edge2" class="edge">
<title>DrgsTreemapComponent&#45;&gt;BimAssistantModule</title>
<path fill="none" stroke="#000000" d="M2807.618,-122.0449C2807.618,-143.6623 2807.618,-177 2807.618,-177 2807.618,-177 1619.5977,-177 1619.5977,-177"/>
<polygon fill="#000000" stroke="#000000" points="1619.5977,-173.5001 1609.5977,-177 1619.5976,-180.5001 1619.5977,-173.5001"/>
</g>
<!-- DrgsTreemapComponent&#45;&gt;BimAssistantModule -->
<g id="edge10" class="edge">
<title>DrgsTreemapComponent&#45;&gt;BimAssistantModule</title>
<path fill="none" stroke="#000000" d="M2860.382,-122.0109C2860.382,-144.4852 2860.382,-180 2860.382,-180 2860.382,-180 1619.6478,-180 1619.6478,-180"/>
<polygon fill="#000000" stroke="#000000" points="1619.6479,-176.5001 1609.6478,-180 1619.6478,-183.5001 1619.6479,-176.5001"/>
</g>
<!-- GroupbyBarComponent -->
<g id="node3" class="node">
<title>GroupbyBarComponent</title>
<polygon fill="#ffffb3" stroke="#000000" points="2736.8117,-122 2585.1883,-122 2585.1883,-86 2736.8117,-86 2736.8117,-122"/>
<text text-anchor="middle" x="2661" y="-99.8" font-family="Times,serif" font-size="14.00" fill="#000000">GroupbyBarComponent</text>
</g>
<!-- GroupbyBarComponent&#45;&gt;BimAssistantModule -->
<g id="edge3" class="edge">
<title>GroupbyBarComponent&#45;&gt;BimAssistantModule</title>
<path fill="none" stroke="#000000" d="M2661,-122.1289C2661,-142.5724 2661,-173 2661,-173 2661,-173 1619.8957,-173 1619.8957,-173"/>
<polygon fill="#000000" stroke="#000000" points="1619.8957,-169.5001 1609.8957,-173 1619.8956,-176.5001 1619.8957,-169.5001"/>
</g>
<!-- MonthYearPickerComponent -->
<g id="node4" class="node">
<title>MonthYearPickerComponent</title>
<polygon fill="#ffffb3" stroke="#000000" points="2567.6274,-122 2386.3726,-122 2386.3726,-86 2567.6274,-86 2567.6274,-122"/>
<text text-anchor="middle" x="2477" y="-99.8" font-family="Times,serif" font-size="14.00" fill="#000000">MonthYearPickerComponent</text>
</g>
<!-- MonthYearPickerComponent&#45;&gt;BimAssistantModule -->
<g id="edge4" class="edge">
<title>MonthYearPickerComponent&#45;&gt;BimAssistantModule</title>
<path fill="none" stroke="#000000" d="M2477,-122.1061C2477,-141.3391 2477,-169 2477,-169 2477,-169 1619.619,-169 1619.619,-169"/>
<polygon fill="#000000" stroke="#000000" points="1619.6191,-165.5001 1609.619,-169 1619.619,-172.5001 1619.6191,-165.5001"/>
</g>
<!-- PeriodPickerComponent -->
<g id="node5" class="node">
<title>PeriodPickerComponent</title>
<polygon fill="#ffffb3" stroke="#000000" points="2367.6442,-122 2214.3558,-122 2214.3558,-86 2367.6442,-86 2367.6442,-122"/>
<text text-anchor="middle" x="2291" y="-99.8" font-family="Times,serif" font-size="14.00" fill="#000000">PeriodPickerComponent</text>
</g>
<!-- PeriodPickerComponent&#45;&gt;BimAssistantModule -->
<g id="edge5" class="edge">
<title>PeriodPickerComponent&#45;&gt;BimAssistantModule</title>
<path fill="none" stroke="#000000" d="M2291,-122.2667C2291,-140.5552 2291,-166 2291,-166 2291,-166 1619.7898,-166 1619.7898,-166"/>
<polygon fill="#000000" stroke="#000000" points="1619.7898,-162.5001 1609.7898,-166 1619.7897,-169.5001 1619.7898,-162.5001"/>
</g>
<!-- DeductionsCodesComponent -->
<g id="node6" class="node">
<title>DeductionsCodesComponent</title>
<polygon fill="#ffffb3" stroke="#000000" points="2196.0898,-122 2015.9102,-122 2015.9102,-86 2196.0898,-86 2196.0898,-122"/>
<text text-anchor="middle" x="2106" y="-99.8" font-family="Times,serif" font-size="14.00" fill="#000000">DeductionsCodesComponent</text>
</g>
<!-- DeductionsCodesComponent&#45;&gt;BimAssistantModule -->
<g id="edge6" class="edge">
<title>DeductionsCodesComponent&#45;&gt;BimAssistantModule</title>
<path fill="none" stroke="#000000" d="M2106,-122.0336C2106,-139.0597 2106,-162 2106,-162 2106,-162 1619.7512,-162 1619.7512,-162"/>
<polygon fill="#000000" stroke="#000000" points="1619.7513,-158.5001 1609.7512,-162 1619.7512,-165.5001 1619.7513,-158.5001"/>
</g>
<!-- SuggestionsComponent -->
<g id="node7" class="node">
<title>SuggestionsComponent</title>
<polygon fill="#ffffb3" stroke="#000000" points="1997.5,-122 1848.5,-122 1848.5,-86 1997.5,-86 1997.5,-122"/>
<text text-anchor="middle" x="1923" y="-99.8" font-family="Times,serif" font-size="14.00" fill="#000000">SuggestionsComponent</text>
</g>
<!-- SuggestionsComponent&#45;&gt;BimAssistantModule -->
<g id="edge7" class="edge">
<title>SuggestionsComponent&#45;&gt;BimAssistantModule</title>
<path fill="none" stroke="#000000" d="M1923,-122.0091C1923,-138.0494 1923,-159 1923,-159 1923,-159 1619.6761,-159 1619.6761,-159"/>
<polygon fill="#000000" stroke="#000000" points="1619.6762,-155.5001 1609.6761,-159 1619.6761,-162.5001 1619.6762,-155.5001"/>
</g>
<!-- SuggestionsGlobalComponent -->
<g id="node8" class="node">
<title>SuggestionsGlobalComponent</title>
<polygon fill="#ffffb3" stroke="#000000" points="1830.6024,-122 1643.3976,-122 1643.3976,-86 1830.6024,-86 1830.6024,-122"/>
<text text-anchor="middle" x="1737" y="-99.8" font-family="Times,serif" font-size="14.00" fill="#000000">SuggestionsGlobalComponent</text>
</g>
<!-- SuggestionsGlobalComponent&#45;&gt;BimAssistantModule -->
<g id="edge8" class="edge">
<title>SuggestionsGlobalComponent&#45;&gt;BimAssistantModule</title>
<path fill="none" stroke="#000000" d="M1737,-122.1243C1737,-136.7832 1737,-155 1737,-155 1737,-155 1619.6543,-155 1619.6543,-155"/>
<polygon fill="#000000" stroke="#000000" points="1619.6543,-151.5001 1609.6543,-155 1619.6542,-158.5001 1619.6543,-151.5001"/>
</g>
<!-- PacketExporterComponent -->
<g id="node9" class="node">
<title>PacketExporterComponent</title>
<polygon fill="#ffffb3" stroke="#000000" points="1625.6288,-122 1458.3712,-122 1458.3712,-86 1625.6288,-86 1625.6288,-122"/>
<text text-anchor="middle" x="1542" y="-99.8" font-family="Times,serif" font-size="14.00" fill="#000000">PacketExporterComponent</text>
</g>
<!-- PacketExporterComponent&#45;&gt;BimAssistantModule -->
<g id="edge9" class="edge">
<title>PacketExporterComponent&#45;&gt;BimAssistantModule</title>
<path fill="none" stroke="#000000" d="M1542,-122.1061C1542,-122.1061 1542,-140.991 1542,-140.991"/>
<polygon fill="#000000" stroke="#000000" points="1538.5001,-140.9909 1542,-150.991 1545.5001,-140.991 1538.5001,-140.9909"/>
</g>
<!-- BreadcrumbsComponent -->
<g id="node10" class="node">
<title>BreadcrumbsComponent</title>
<polygon fill="#ffffb3" stroke="#000000" points="1439.9692,-122 1284.0308,-122 1284.0308,-86 1439.9692,-86 1439.9692,-122"/>
<text text-anchor="middle" x="1362" y="-99.8" font-family="Times,serif" font-size="14.00" fill="#000000">BreadcrumbsComponent</text>
</g>
<!-- BreadcrumbsComponent&#45;&gt;BimAssistantModule -->
<g id="edge11" class="edge">
<title>BreadcrumbsComponent&#45;&gt;BimAssistantModule</title>
<path fill="none" stroke="#000000" d="M1362,-122.1243C1362,-136.7832 1362,-155 1362,-155 1362,-155 1464.4625,-155 1464.4625,-155"/>
<polygon fill="#000000" stroke="#000000" points="1464.4626,-158.5001 1474.4625,-155 1464.4625,-151.5001 1464.4626,-158.5001"/>
</g>
<!-- LinksModalComponent -->
<g id="node11" class="node">
<title>LinksModalComponent</title>
<polygon fill="#ffffb3" stroke="#000000" points="1265.7702,-122 1116.2298,-122 1116.2298,-86 1265.7702,-86 1265.7702,-122"/>
<text text-anchor="middle" x="1191" y="-99.8" font-family="Times,serif" font-size="14.00" fill="#000000">LinksModalComponent</text>
</g>
<!-- LinksModalComponent&#45;&gt;BimAssistantModule -->
<g id="edge12" class="edge">
<title>LinksModalComponent&#45;&gt;BimAssistantModule</title>
<path fill="none" stroke="#000000" d="M1191,-122.0091C1191,-138.0494 1191,-159 1191,-159 1191,-159 1464.3237,-159 1464.3237,-159"/>
<polygon fill="#000000" stroke="#000000" points="1464.3237,-162.5001 1474.3237,-159 1464.3236,-155.5001 1464.3237,-162.5001"/>
</g>
<!-- LinksModalFieldComponent -->
<g id="node12" class="node">
<title>LinksModalFieldComponent</title>
<polygon fill="#ffffb3" stroke="#000000" points="1098.049,-122 919.951,-122 919.951,-86 1098.049,-86 1098.049,-122"/>
<text text-anchor="middle" x="1009" y="-99.8" font-family="Times,serif" font-size="14.00" fill="#000000">LinksModalFieldComponent</text>
</g>
<!-- LinksModalFieldComponent&#45;&gt;BimAssistantModule -->
<g id="edge13" class="edge">
<title>LinksModalFieldComponent&#45;&gt;BimAssistantModule</title>
<path fill="none" stroke="#000000" d="M1009,-122.0336C1009,-139.0597 1009,-162 1009,-162 1009,-162 1464.4952,-162 1464.4952,-162"/>
<polygon fill="#000000" stroke="#000000" points="1464.4952,-165.5001 1474.4952,-162 1464.4951,-158.5001 1464.4952,-165.5001"/>
</g>
<!-- BimAssistantComponent  -->
<g id="node16" class="node">
<title>BimAssistantComponent </title>
<polygon fill="#fb8072" stroke="#000000" points="1622.2772,-252 1461.7228,-252 1461.7228,-216 1622.2772,-216 1622.2772,-252"/>
<text text-anchor="middle" x="1542" y="-229.8" font-family="Times,serif" font-size="14.00" fill="#000000">BimAssistantComponent </text>
</g>
<!-- BimAssistantModule&#45;&gt;BimAssistantComponent  -->
<g id="edge16" class="edge">
<title>BimAssistantModule&#45;&gt;BimAssistantComponent </title>
<path fill="none" stroke="#000000" stroke-dasharray="5,2" d="M1542,-187.1061C1542,-187.1061 1542,-205.991 1542,-205.991"/>
<polygon fill="#000000" stroke="#000000" points="1538.5001,-205.9909 1542,-215.991 1545.5001,-205.991 1538.5001,-205.9909"/>
</g>
<!-- SharedModule -->
<g id="node14" class="node">
<title>SharedModule</title>
<polygon fill="#8dd3c7" stroke="#000000" points="896.4231,-122 893.4231,-126 872.4231,-126 869.4231,-122 797.5769,-122 797.5769,-86 896.4231,-86 896.4231,-122"/>
<text text-anchor="middle" x="847" y="-99.8" font-family="Times,serif" font-size="14.00" fill="#000000">SharedModule</text>
</g>
<!-- SharedModule&#45;&gt;BimAssistantModule -->
<g id="edge14" class="edge">
<title>SharedModule&#45;&gt;BimAssistantModule</title>
<path fill="none" stroke="#000000" d="M847,-122.2667C847,-140.5552 847,-166 847,-166 847,-166 1464.4123,-166 1464.4123,-166"/>
<polygon fill="#000000" stroke="#000000" points="1464.4124,-169.5001 1474.4123,-166 1464.4123,-162.5001 1464.4124,-169.5001"/>
</g>
<!-- CoreSharedModule -->
<g id="node15" class="node">
<title>CoreSharedModule</title>
<polygon fill="#8dd3c7" stroke="#000000" points="779.6345,-122 776.6345,-126 755.6345,-126 752.6345,-122 654.3655,-122 654.3655,-86 779.6345,-86 779.6345,-122"/>
<text text-anchor="middle" x="717" y="-99.8" font-family="Times,serif" font-size="14.00" fill="#000000">CoreSharedModule</text>
</g>
<!-- CoreSharedModule&#45;&gt;BimAssistantModule -->
<g id="edge15" class="edge">
<title>CoreSharedModule&#45;&gt;BimAssistantModule</title>
<path fill="none" stroke="#000000" d="M717,-122.1061C717,-141.3391 717,-169 717,-169 717,-169 1464.4868,-169 1464.4868,-169"/>
<polygon fill="#000000" stroke="#000000" points="1464.4868,-172.5001 1474.4868,-169 1464.4868,-165.5001 1464.4868,-172.5001"/>
</g>
<!-- FetchDrgsService -->
<g id="node17" class="node">
<title>FetchDrgsService</title>
<ellipse fill="#fdb462" stroke="#000000" cx="550" cy="-104" rx="80.4325" ry="18"/>
<text text-anchor="middle" x="550" y="-99.8" font-family="Times,serif" font-size="14.00" fill="#000000">FetchDrgsService</text>
</g>
<!-- FetchDrgsService&#45;&gt;BimAssistantModule -->
<g id="edge17" class="edge">
<title>FetchDrgsService&#45;&gt;BimAssistantModule</title>
<path fill="none" stroke="#000000" d="M550,-122.1289C550,-142.5724 550,-173 550,-173 550,-173 1464.2062,-173 1464.2062,-173"/>
<polygon fill="#000000" stroke="#000000" points="1464.2063,-176.5001 1474.2062,-173 1464.2062,-169.5001 1464.2063,-176.5001"/>
</g>
<!-- HistoryService -->
<g id="node18" class="node">
<title>HistoryService</title>
<ellipse fill="#fdb462" stroke="#000000" cx="383" cy="-104" rx="68.9158" ry="18"/>
<text text-anchor="middle" x="383" y="-99.8" font-family="Times,serif" font-size="14.00" fill="#000000">HistoryService</text>
</g>
<!-- HistoryService&#45;&gt;BimAssistantModule -->
<g id="edge18" class="edge">
<title>HistoryService&#45;&gt;BimAssistantModule</title>
<path fill="none" stroke="#000000" d="M383,-122.0449C383,-143.6623 383,-177 383,-177 383,-177 1464.2525,-177 1464.2525,-177"/>
<polygon fill="#000000" stroke="#000000" points="1464.2526,-180.5001 1474.2525,-177 1464.2525,-173.5001 1464.2526,-180.5001"/>
</g>
<!-- PeriodService -->
<g id="node19" class="node">
<title>PeriodService</title>
<ellipse fill="#fdb462" stroke="#000000" cx="231" cy="-104" rx="65.4053" ry="18"/>
<text text-anchor="middle" x="231" y="-99.8" font-family="Times,serif" font-size="14.00" fill="#000000">PeriodService</text>
</g>
<!-- PeriodService&#45;&gt;BimAssistantModule -->
<g id="edge19" class="edge">
<title>PeriodService&#45;&gt;BimAssistantModule</title>
<path fill="none" stroke="#000000" d="M231,-122.0109C231,-144.4852 231,-180 231,-180 231,-180 1464.2756,-180 1464.2756,-180"/>
<polygon fill="#000000" stroke="#000000" points="1464.2756,-183.5001 1474.2756,-180 1464.2756,-176.5001 1464.2756,-183.5001"/>
</g>
<!-- LinksService -->
<g id="node20" class="node">
<title>LinksService</title>
<ellipse fill="#fdb462" stroke="#000000" cx="86" cy="-104" rx="61.975" ry="18"/>
<text text-anchor="middle" x="86" y="-99.8" font-family="Times,serif" font-size="14.00" fill="#000000">LinksService</text>
</g>
<!-- LinksService&#45;&gt;BimAssistantModule -->
<g id="edge20" class="edge">
<title>LinksService&#45;&gt;BimAssistantModule</title>
<path fill="none" stroke="#000000" d="M86,-122.1532C86,-145.7566 86,-184 86,-184 86,-184 1464.2114,-184 1464.2114,-184"/>
<polygon fill="#000000" stroke="#000000" points="1464.2114,-187.5001 1474.2114,-184 1464.2113,-180.5001 1464.2114,-187.5001"/>
</g>
</g>
</svg>
