<?xml version="1.0" encoding="UTF-8" standalone="no"?>
<!DOCTYPE svg PUBLIC "-//W3C//DTD SVG 1.1//EN"
 "http://www.w3.org/Graphics/SVG/1.1/DTD/svg11.dtd">
<!-- Generated by graphviz version 2.40.1 (20161225.0304)
 -->
<!-- Title: dependencies Pages: 1 -->
<svg width="1685pt" height="211pt"
 viewBox="0.00 0.00 1685.00 211.00" xmlns="http://www.w3.org/2000/svg" xmlns:xlink="http://www.w3.org/1999/xlink">
<g id="graph0" class="graph" transform="scale(1 1) rotate(0) translate(4 207)">
<title>dependencies</title>
<polygon fill="#ffffff" stroke="transparent" points="-4,4 -4,-207 1681,-207 1681,4 -4,4"/>
<text text-anchor="start" x="817.5091" y="-42.4" font-family="sans-serif" font-weight="bold" font-size="14.00" fill="#000000">Legend</text>
<polygon fill="#ffffb3" stroke="transparent" points="604.5,-10 604.5,-30 624.5,-30 624.5,-10 604.5,-10"/>
<text text-anchor="start" x="628.129" y="-15.4" font-family="sans-serif" font-size="14.00" fill="#000000"> &#160;Declarations</text>
<polygon fill="#8dd3c7" stroke="transparent" points="717.5,-10 717.5,-30 737.5,-30 737.5,-10 717.5,-10"/>
<text text-anchor="start" x="741.2251" y="-15.4" font-family="sans-serif" font-size="14.00" fill="#000000"> &#160;Module</text>
<polygon fill="#80b1d3" stroke="transparent" points="803.5,-10 803.5,-30 823.5,-30 823.5,-10 803.5,-10"/>
<text text-anchor="start" x="827.2812" y="-15.4" font-family="sans-serif" font-size="14.00" fill="#000000"> &#160;Bootstrap</text>
<polygon fill="#fdb462" stroke="transparent" points="900.5,-10 900.5,-30 920.5,-30 920.5,-10 900.5,-10"/>
<text text-anchor="start" x="924.1732" y="-15.4" font-family="sans-serif" font-size="14.00" fill="#000000"> &#160;Providers</text>
<polygon fill="#fb8072" stroke="transparent" points="996.5,-10 996.5,-30 1016.5,-30 1016.5,-10 996.5,-10"/>
<text text-anchor="start" x="1020.2258" y="-15.4" font-family="sans-serif" font-size="14.00" fill="#000000"> &#160;Exports</text>
<g id="clust1" class="cluster">
<title>cluster_CoreModule</title>
<polygon fill="none" stroke="#000000" stroke-dasharray="1,5" points="8,-70 8,-195 1669,-195 1669,-70 8,-70"/>
</g>
<g id="clust2" class="cluster">
<title>cluster_CoreModule_declarations</title>
<polygon fill="none" stroke="#000000" points="906,-78 906,-130 1661,-130 1661,-78 906,-78"/>
</g>
<g id="clust8" class="cluster">
<title>cluster_CoreModule_imports</title>
<polygon fill="none" stroke="#000000" points="226,-78 226,-130 898,-130 898,-78 226,-78"/>
</g>
<g id="clust11" class="cluster">
<title>cluster_CoreModule_providers</title>
<polygon fill="none" stroke="#000000" points="16,-78 16,-130 218,-130 218,-78 16,-78"/>
</g>
<!-- CoreComponent -->
<g id="node1" class="node">
<title>CoreComponent</title>
<polygon fill="#ffffb3" stroke="#000000" points="1653.0452,-122 1544.9548,-122 1544.9548,-86 1653.0452,-86 1653.0452,-122"/>
<text text-anchor="middle" x="1599" y="-99.8" font-family="Times,serif" font-size="14.00" fill="#000000">CoreComponent</text>
</g>
<!-- CoreModule -->
<g id="node6" class="node">
<title>CoreModule</title>
<polygon fill="#8dd3c7" stroke="#000000" points="884.2619,-187 881.2619,-191 860.2619,-191 857.2619,-187 797.7381,-187 797.7381,-151 884.2619,-151 884.2619,-187"/>
<text text-anchor="middle" x="841" y="-164.8" font-family="Times,serif" font-size="14.00" fill="#000000">CoreModule</text>
</g>
<!-- CoreComponent&#45;&gt;CoreModule -->
<g id="edge1" class="edge">
<title>CoreComponent&#45;&gt;CoreModule</title>
<path fill="none" stroke="#000000" d="M1599,-122.0908C1599,-145.1328 1599,-182 1599,-182 1599,-182 894.4759,-182 894.4759,-182"/>
<polygon fill="#000000" stroke="#000000" points="894.4759,-178.5001 884.4759,-182 894.4758,-185.5001 894.4759,-178.5001"/>
</g>
<!-- CoreHeaderComponent -->
<g id="node2" class="node">
<title>CoreHeaderComponent</title>
<polygon fill="#ffffb3" stroke="#000000" points="1526.4552,-122 1377.5448,-122 1377.5448,-86 1526.4552,-86 1526.4552,-122"/>
<text text-anchor="middle" x="1452" y="-99.8" font-family="Times,serif" font-size="14.00" fill="#000000">CoreHeaderComponent</text>
</g>
<!-- CoreHeaderComponent&#45;&gt;CoreModule -->
<g id="edge2" class="edge">
<title>CoreHeaderComponent&#45;&gt;CoreModule</title>
<path fill="none" stroke="#000000" d="M1452,-122.2843C1452,-143.3211 1452,-175 1452,-175 1452,-175 894.4518,-175 894.4518,-175"/>
<polygon fill="#000000" stroke="#000000" points="894.4518,-171.5001 884.4518,-175 894.4518,-178.5001 894.4518,-171.5001"/>
</g>
<!-- CoreSideComponent -->
<g id="node3" class="node">
<title>CoreSideComponent</title>
<polygon fill="#ffffb3" stroke="#000000" points="1359.9327,-122 1226.0673,-122 1226.0673,-86 1359.9327,-86 1359.9327,-122"/>
<text text-anchor="middle" x="1293" y="-99.8" font-family="Times,serif" font-size="14.00" fill="#000000">CoreSideComponent</text>
</g>
<!-- CoreSideComponent&#45;&gt;CoreModule -->
<g id="edge3" class="edge">
<title>CoreSideComponent&#45;&gt;CoreModule</title>
<path fill="none" stroke="#000000" d="M1293,-122.1061C1293,-141.3391 1293,-169 1293,-169 1293,-169 894.3397,-169 894.3397,-169"/>
<polygon fill="#000000" stroke="#000000" points="894.3397,-165.5001 884.3397,-169 894.3396,-172.5001 894.3397,-165.5001"/>
</g>
<!-- CoreIconsComponent -->
<g id="node4" class="node">
<title>CoreIconsComponent</title>
<polygon fill="#ffffb3" stroke="#000000" points="1208.3641,-122 1069.6359,-122 1069.6359,-86 1208.3641,-86 1208.3641,-122"/>
<text text-anchor="middle" x="1139" y="-99.8" font-family="Times,serif" font-size="14.00" fill="#000000">CoreIconsComponent</text>
</g>
<!-- CoreIconsComponent&#45;&gt;CoreModule -->
<g id="edge4" class="edge">
<title>CoreIconsComponent&#45;&gt;CoreModule</title>
<path fill="none" stroke="#000000" d="M1139,-122.0225C1139,-139.3734 1139,-163 1139,-163 1139,-163 894.3318,-163 894.3318,-163"/>
<polygon fill="#000000" stroke="#000000" points="894.3318,-159.5001 884.3318,-163 894.3317,-166.5001 894.3318,-159.5001"/>
</g>
<!-- CoreErrorComponent -->
<g id="node5" class="node">
<title>CoreErrorComponent</title>
<polygon fill="#ffffb3" stroke="#000000" points="1052.0786,-122 913.9214,-122 913.9214,-86 1052.0786,-86 1052.0786,-122"/>
<text text-anchor="middle" x="983" y="-99.8" font-family="Times,serif" font-size="14.00" fill="#000000">CoreErrorComponent</text>
</g>
<!-- CoreErrorComponent&#45;&gt;CoreModule -->
<g id="edge5" class="edge">
<title>CoreErrorComponent&#45;&gt;CoreModule</title>
<path fill="none" stroke="#000000" d="M983,-122.2396C983,-137.5706 983,-157 983,-157 983,-157 894.3763,-157 894.3763,-157"/>
<polygon fill="#000000" stroke="#000000" points="894.3763,-153.5001 884.3763,-157 894.3762,-160.5001 894.3763,-153.5001"/>
</g>
<!-- SharedModule -->
<g id="node7" class="node">
<title>SharedModule</title>
<polygon fill="#8dd3c7" stroke="#000000" points="890.4231,-122 887.4231,-126 866.4231,-126 863.4231,-122 791.5769,-122 791.5769,-86 890.4231,-86 890.4231,-122"/>
<text text-anchor="middle" x="841" y="-99.8" font-family="Times,serif" font-size="14.00" fill="#000000">SharedModule</text>
</g>
<!-- SharedModule&#45;&gt;CoreModule -->
<g id="edge6" class="edge">
<title>SharedModule&#45;&gt;CoreModule</title>
<path fill="none" stroke="#000000" d="M841,-122.1061C841,-122.1061 841,-140.991 841,-140.991"/>
<polygon fill="#000000" stroke="#000000" points="837.5001,-140.9909 841,-150.991 844.5001,-140.991 837.5001,-140.9909"/>
</g>
<!-- CoreRoutingModule -->
<g id="node8" class="node">
<title>CoreRoutingModule</title>
<polygon fill="#8dd3c7" stroke="#000000" points="773.8795,-122 770.8795,-126 749.8795,-126 746.8795,-122 642.1205,-122 642.1205,-86 773.8795,-86 773.8795,-122"/>
<text text-anchor="middle" x="708" y="-99.8" font-family="Times,serif" font-size="14.00" fill="#000000">CoreRoutingModule</text>
</g>
<!-- CoreRoutingModule&#45;&gt;CoreModule -->
<g id="edge7" class="edge">
<title>CoreRoutingModule&#45;&gt;CoreModule</title>
<path fill="none" stroke="#000000" d="M708,-122.2396C708,-137.5706 708,-157 708,-157 708,-157 787.4508,-157 787.4508,-157"/>
<polygon fill="#000000" stroke="#000000" points="787.4509,-160.5001 797.4508,-157 787.4508,-153.5001 787.4509,-160.5001"/>
</g>
<!-- DashboardModule -->
<g id="node9" class="node">
<title>DashboardModule</title>
<polygon fill="#8dd3c7" stroke="#000000" points="624.191,-122 621.191,-126 600.191,-126 597.191,-122 503.809,-122 503.809,-86 624.191,-86 624.191,-122"/>
<text text-anchor="middle" x="564" y="-99.8" font-family="Times,serif" font-size="14.00" fill="#000000">DashboardModule</text>
</g>
<!-- DashboardModule&#45;&gt;CoreModule -->
<g id="edge8" class="edge">
<title>DashboardModule&#45;&gt;CoreModule</title>
<path fill="none" stroke="#000000" d="M564,-122.0225C564,-139.3734 564,-163 564,-163 564,-163 787.7188,-163 787.7188,-163"/>
<polygon fill="#000000" stroke="#000000" points="787.7188,-166.5001 797.7188,-163 787.7187,-159.5001 787.7188,-166.5001"/>
</g>
<!-- BimAssistantModule -->
<g id="node10" class="node">
<title>BimAssistantModule</title>
<polygon fill="#8dd3c7" stroke="#000000" points="485.4944,-122 482.4944,-126 461.4944,-126 458.4944,-122 350.5056,-122 350.5056,-86 485.4944,-86 485.4944,-122"/>
<text text-anchor="middle" x="418" y="-99.8" font-family="Times,serif" font-size="14.00" fill="#000000">BimAssistantModule</text>
</g>
<!-- BimAssistantModule&#45;&gt;CoreModule -->
<g id="edge9" class="edge">
<title>BimAssistantModule&#45;&gt;CoreModule</title>
<path fill="none" stroke="#000000" d="M418,-122.1061C418,-141.3391 418,-169 418,-169 418,-169 787.7195,-169 787.7195,-169"/>
<polygon fill="#000000" stroke="#000000" points="787.7195,-172.5001 797.7195,-169 787.7194,-165.5001 787.7195,-172.5001"/>
</g>
<!-- AdminModule -->
<g id="node11" class="node">
<title>AdminModule</title>
<polygon fill="#8dd3c7" stroke="#000000" points="332.4386,-122 329.4386,-126 308.4386,-126 305.4386,-122 233.5614,-122 233.5614,-86 332.4386,-86 332.4386,-122"/>
<text text-anchor="middle" x="283" y="-99.8" font-family="Times,serif" font-size="14.00" fill="#000000">AdminModule</text>
</g>
<!-- AdminModule&#45;&gt;CoreModule -->
<g id="edge10" class="edge">
<title>AdminModule&#45;&gt;CoreModule</title>
<path fill="none" stroke="#000000" d="M283,-122.2843C283,-143.3211 283,-175 283,-175 283,-175 787.679,-175 787.679,-175"/>
<polygon fill="#000000" stroke="#000000" points="787.679,-178.5001 797.679,-175 787.679,-171.5001 787.679,-178.5001"/>
</g>
<!-- LoggedUserResolver -->
<g id="node12" class="node">
<title>LoggedUserResolver</title>
<ellipse fill="#fdb462" stroke="#000000" cx="117" cy="-104" rx="93.1794" ry="18"/>
<text text-anchor="middle" x="117" y="-99.8" font-family="Times,serif" font-size="14.00" fill="#000000">LoggedUserResolver</text>
</g>
<!-- LoggedUserResolver&#45;&gt;CoreModule -->
<g id="edge11" class="edge">
<title>LoggedUserResolver&#45;&gt;CoreModule</title>
<path fill="none" stroke="#000000" d="M117,-122.0908C117,-145.1328 117,-182 117,-182 117,-182 787.6102,-182 787.6102,-182"/>
<polygon fill="#000000" stroke="#000000" points="787.6102,-185.5001 797.6102,-182 787.6102,-178.5001 787.6102,-185.5001"/>
</g>
</g>
</svg>
