<svg xmlns="http://www.w3.org/2000/svg" xmlns:xlink="http://www.w3.org/1999/xlink" width="20" height="20" viewBox="0 0 20 20">
    <defs>
        <path id="cluster" d="M17.019 16.016v-4.004c0-.728-.28-1.036-1.01-1.036h-3.981c-.729 0-1.01.308-1.01 1.036v4.004c0 .728.281 1.036 1.01 1.036h3.981c.73 0 1.01-.308 1.01-1.036zm0-10.024V1.988c0-.728-.28-1.036-1.01-1.036h-3.981c-.729 0-1.01.308-1.01 1.036v4.004c0 .728.281 1.036 1.01 1.036h3.981c.73 0 1.01-.308 1.01-1.036zm-4.991 12.012c-1.346 0-1.99-.644-1.99-1.988v-4.004c0-1.344.644-1.988 1.99-1.988h3.981c1.346 0 1.991.644 1.991 1.988v4.004c0 1.344-.645 1.988-1.99 1.988h-3.982zm0-10.024c-1.346 0-1.99-.644-1.99-1.988V1.988c0-1.344.644-1.988 1.99-1.988h3.981C17.355 0 18 .644 18 1.988v4.004c0 1.344-.645 1.988-1.99 1.988h-3.982zm-5.047 8.036v-4.004c0-.728-.28-1.036-1.009-1.036H1.991c-.73 0-1.01.308-1.01 1.036v4.004c0 .728.28 1.036 1.01 1.036h3.981c.729 0 1.01-.308 1.01-1.036zm0-10.024V1.988c0-.728-.28-1.036-1.009-1.036H1.991C1.26.952.98 1.26.98 1.988v4.004c0 .728.28 1.036 1.01 1.036h3.981c.729 0 1.01-.308 1.01-1.036zm-4.99 12.012C.645 18.004 0 17.36 0 16.016v-4.004c0-1.344.645-1.988 1.99-1.988h3.982c1.346 0 1.99.644 1.99 1.988v4.004c0 1.344-.644 1.988-1.99 1.988H1.991zm0-10.024C.645 7.98 0 7.336 0 5.992V1.988C0 .644.645 0 1.99 0h3.982c1.346 0 1.99.644 1.99 1.988v4.004c0 1.344-.644 1.988-1.99 1.988H1.991z"/>
    </defs>
    <g fill="#000" fill-rule="evenodd" transform="translate(1 1)">
        <use xlink:href="#a"/>
        <path d="M-1-1h20v20H-1z"/>
    </g>
</svg>
