<svg xmlns="http://www.w3.org/2000/svg" xmlns:xlink="http://www.w3.org/1999/xlink" width="139" height="136" viewBox="0 0 139 136">
    <defs>
        <path id="aaa" d="M2.164 42.71C5.033 15.374 35.234 0 54.794 0c9.933 0 23.293 3.963 34.448 11.443 13.153-7.74 22.657-4.537 28.512 9.607 5.553 13.414 12.419 29.89 20.597 49.429a4 4 0 0 1-1.865 5.104c-28.214 14.467-49.428 21.5-63.643 21.102-6.103-.13-13.07-1.52-20.984-4.462-5.579-2.074-10.545-3.867-14.964-5.479.344.692.683 1.372 1.017 2.038 9.698 19.39 38.97 38.529 46.637 42.36 3.888 1.944 0 4.858-4.859 3.887-6.803-.972-24.895-2.915-48.591-21.372C-1.921 86.258-.653 58.217 2.164 42.71z"/>
    </defs>
    <g fill="none" fill-rule="evenodd" id="ccc">
        <path fill="#FFEDB6" d="M65 119l8-26.5-41.5-9L52.25 121z"/>
        <circle cx="78.5" cy="115.5" r="18.5" fill="#FC3"/>
        <mask id="bbb" fill="#fff">
            <use xlink:href="#aaa"/>
        </mask>
        <use fill="#4EC8D9" xlink:href="#aaa"/>
        <path fill="#0097AC" d="M89 11.5c1.468 2.446 18.45 23.315 50.944 62.608l13.946-3.67C129.226 15.494 107.596-4.152 89 11.5z" mask="url(#bbb)"/>
        <path fill="#006F7F" d="M89 11.5c1.468 2.446 18.45 23.315 50.944 62.608C120.648 40.369 106.834 18.167 98.5 7.5 95 2 89-.5 89 11.5z" mask="url(#bbb)"/>
        <ellipse cx="77.746" cy="60.229" fill="#FFF" mask="url(#bbb)" rx="21.38" ry="21.371"/>
        <path fill="#0097AC" fill-rule="nonzero" d="M78.284 80.711c11.351 0 20.553-9.198 20.553-20.544 0-11.347-9.202-20.545-20.553-20.545S57.731 48.82 57.731 60.167c0 11.346 9.202 20.544 20.553 20.544zm0 5.829C63.713 86.54 51.9 74.732 51.9 60.167c0-14.566 11.813-26.374 26.384-26.374 14.572 0 26.384 11.808 26.384 26.374 0 14.565-11.812 26.373-26.384 26.373z" mask="url(#bbb)"/>
        <ellipse cx="64.337" cy="62.368" fill="#000" mask="url(#bbb)" rx="5.138" ry="5.136"/>
        <ellipse cx="65.071" cy="60.167" fill="#FFF" mask="url(#bbb)" rx="1.468" ry="1.467"/>
        <path fill="#0097AC" d="M56.5-1C72-9.5-18 35 34.5 115c.979 6.36-13.188-4.14-42.5-31.5C-15.894 33.037 5.606 4.87 56.5-1z" mask="url(#bbb)"/>
        <path fill="#006F7F" d="M36 4.5c.677-3.888-65 41-3.96 112.164.978 6.36 0 11.985-2.937 16.876C-17.299 63.847-15 20.833 36 4.5z" mask="url(#bbb)"/>
        <path fill="#FFEDB6" d="M89.118 105h3.23c1.989 4.972 2.86 8.329 2.61 10.07a1.19 1.19 0 0 1-2.242.363l-4.492-8.986a1 1 0 0 1 .894-1.447z"/>
    </g>
</svg>
