<?xml version="1.0" encoding="UTF-8"?>
<svg xmlns="http://www.w3.org/2000/svg" xmlns:xlink="http://www.w3.org/1999/xlink">
    <defs>
        <path d="M12.0132824,8.44755245 C12.0132824,11.1328671 11.115093,13.8461538 9.90815112,14.7692308 C13.0237454,13.986014 14.7910532,11.8041958 15.016603,8.44755245 L12.0132824,8.44755245 Z M9.90815112,1.17482517 C11.115093,2.15384615 12.0132824,4.86713287 12.0132824,7.4965035 L15.016603,7.4965035 C14.7910532,4.1958042 13.0237454,2.01398601 9.90815112,1.17482517 Z M8.47766431,8.44755245 L8.47766431,14.9370629 C9.8800827,14.3776224 10.9466825,11.6643357 11.0308878,8.44755245 L8.47766431,8.44755245 Z M8.47766431,1.00699301 L8.47766431,7.4965035 L11.0308878,7.4965035 C10.9466825,4.33566434 9.8800827,1.62237762 8.47766431,1.00699301 Z M7.52233569,14.9370629 L7.52233569,8.44755245 L4.96911221,8.44755245 C5.05331746,11.6643357 6.11891485,14.3776224 7.52233569,14.9370629 Z M7.52233569,7.4965035 L7.52233569,1.00699301 C6.11891485,1.62237762 5.05331746,4.33566434 4.96911221,7.4965035 L7.52233569,7.4965035 Z M6.09084644,14.7692308 C4.88490696,13.8461538 3.98571518,11.1328671 3.98571518,8.44755245 L0.982394587,8.44755245 C1.20794436,11.8041958 2.97525218,13.986014 6.09084644,14.7692308 Z M3.98571518,7.4965035 C3.98571518,4.86713287 4.88490696,2.15384615 6.09084644,1.17482517 C2.97525218,2.01398601 1.20794436,4.1958042 0.982394587,7.4965035 L3.98571518,7.4965035 Z M0,7.97202797 C0,3.27272727 3.28400476,0 7.99949878,0 C12.7149928,0 16,3.27272727 16,7.97202797 C16,12.7272727 12.7149928,16 7.99949878,16 C3.28400476,16 0,12.7272727 0,7.97202797 Z" id="oldrrf-path"></path>
    </defs>
    <symbol viewBox="0 0 20 20" id="oldrrf" stroke="none" stroke-width="1" fill="none" fill-rule="evenodd" transform="translate(-2.000000, -2.000000)">
        <g transform="translate(2.000000, 2.000000)">
            <mask id="oldrrf-mask-2" fill="white">
                <use xlink:href="#oldrrf-path"></use>
            </mask>
            <use id="oldrrf-Mask" fill="#000000" xlink:href="#oldrrf-path"></use>
        </g>
    </symbol>
</svg>