<svg xmlns="http://www.w3.org/2000/svg" xmlns:xlink="http://www.w3.org/1999/xlink" width="20" height="20" viewBox="0 0 20 20">
    <defs>
        <path id="a" d="M12.985 13.114c.644 0 1.091-.449 1.091-1.093 0-.644-.447-1.093-1.09-1.093-.646 0-1.092.449-1.092 1.093 0 .644.446 1.093 1.091 1.093m.504.868V16h-.98v-2.018c-.923-.196-1.54-.952-1.54-1.961 0-1.037.617-1.793 1.54-1.961V0h.98v10.06c.923.196 1.511.924 1.511 1.961s-.588 1.765-1.511 1.961M7.5 6.081c.644 0 1.091-.449 1.091-1.093 0-.645-.447-1.093-1.091-1.093-.645 0-1.091.448-1.091 1.093 0 .644.446 1.093 1.091 1.093m.504.868V16h-.98V6.95c-.924-.197-1.539-.954-1.539-1.962 0-1.037.615-1.794 1.538-1.962V0h.98v3.026c.923.196 1.51.925 1.51 1.962s-.587 1.765-1.51 1.961m-5.99 3.167c.646 0 1.092-.449 1.092-1.093 0-.645-.446-1.093-1.091-1.093-.643 0-1.09.448-1.09 1.093 0 .644.447 1.093 1.09 1.093m.504.868V16h-.979v-5.016C.615 10.788 0 10.032 0 9.023 0 7.986.615 7.229 1.54 7.06V0h.978v7.061c.923.196 1.51.925 1.51 1.962s-.587 1.765-1.51 1.961"/>
    </defs>
    <g fill="none" fill-rule="evenodd" transform="translate(3 2)">
        <mask id="b" fill="#fff">
            <use xlink:href="#a"/>
        </mask>
        <use fill="#000" xlink:href="#a"/>
        <g fill="#000" mask="url(#b)">
            <path d="M-3-2h20v20H-3z"/>
        </g>
    </g>
</svg>
