<?xml version="1.0" encoding="UTF-8" standalone="no"?>
<!DOCTYPE svg PUBLIC "-//W3C//DTD SVG 1.1//EN"
 "http://www.w3.org/Graphics/SVG/1.1/DTD/svg11.dtd">
<!-- Generated by graphviz version 2.40.1 (20161225.0304)
 -->
<!-- Title: dependencies Pages: 1 -->
<svg width="604pt" height="284pt"
 viewBox="0.00 0.00 604.00 284.00" xmlns="http://www.w3.org/2000/svg" xmlns:xlink="http://www.w3.org/1999/xlink">
<g id="graph0" class="graph" transform="scale(1 1) rotate(0) translate(4 280)">
<title>dependencies</title>
<polygon fill="#ffffff" stroke="transparent" points="-4,4 -4,-280 600,-280 600,4 -4,4"/>
<text text-anchor="start" x="277.0091" y="-42.4" font-family="sans-serif" font-weight="bold" font-size="14.00" fill="#000000">Legend</text>
<polygon fill="#ffffb3" stroke="transparent" points="64,-10 64,-30 84,-30 84,-10 64,-10"/>
<text text-anchor="start" x="87.629" y="-15.4" font-family="sans-serif" font-size="14.00" fill="#000000"> &#160;Declarations</text>
<polygon fill="#8dd3c7" stroke="transparent" points="177,-10 177,-30 197,-30 197,-10 177,-10"/>
<text text-anchor="start" x="200.7251" y="-15.4" font-family="sans-serif" font-size="14.00" fill="#000000"> &#160;Module</text>
<polygon fill="#80b1d3" stroke="transparent" points="263,-10 263,-30 283,-30 283,-10 263,-10"/>
<text text-anchor="start" x="286.7812" y="-15.4" font-family="sans-serif" font-size="14.00" fill="#000000"> &#160;Bootstrap</text>
<polygon fill="#fdb462" stroke="transparent" points="360,-10 360,-30 380,-30 380,-10 360,-10"/>
<text text-anchor="start" x="383.6732" y="-15.4" font-family="sans-serif" font-size="14.00" fill="#000000"> &#160;Providers</text>
<polygon fill="#fb8072" stroke="transparent" points="456,-10 456,-30 476,-30 476,-10 456,-10"/>
<text text-anchor="start" x="479.7258" y="-15.4" font-family="sans-serif" font-size="14.00" fill="#000000"> &#160;Exports</text>
<g id="clust1" class="cluster">
<title>cluster_SharedModule</title>
<polygon fill="none" stroke="#000000" stroke-dasharray="1,5" points="8,-70 8,-268 588,-268 588,-70 8,-70"/>
</g>
<g id="clust2" class="cluster">
<title>cluster_SharedModule_declarations</title>
<polygon fill="none" stroke="#000000" points="155,-78 155,-130 420,-130 420,-78 155,-78"/>
</g>
<g id="clust6" class="cluster">
<title>cluster_SharedModule_exports</title>
<polygon fill="none" stroke="#000000" points="16,-208 16,-260 580,-260 580,-208 16,-208"/>
</g>
<!-- SpinnerComponent -->
<g id="node1" class="node">
<title>SpinnerComponent</title>
<polygon fill="#ffffb3" stroke="#000000" points="412.3809,-122 287.6191,-122 287.6191,-86 412.3809,-86 412.3809,-122"/>
<text text-anchor="middle" x="350" y="-99.8" font-family="Times,serif" font-size="14.00" fill="#000000">SpinnerComponent</text>
</g>
<!-- SharedModule -->
<g id="node3" class="node">
<title>SharedModule</title>
<polygon fill="#8dd3c7" stroke="#000000" points="332.4231,-187 329.4231,-191 308.4231,-191 305.4231,-187 233.5769,-187 233.5769,-151 332.4231,-151 332.4231,-187"/>
<text text-anchor="middle" x="283" y="-164.8" font-family="Times,serif" font-size="14.00" fill="#000000">SharedModule</text>
</g>
<!-- SpinnerComponent&#45;&gt;SharedModule -->
<g id="edge1" class="edge">
<title>SpinnerComponent&#45;&gt;SharedModule</title>
<path fill="none" stroke="#000000" d="M309.8854,-122.1061C309.8854,-122.1061 309.8854,-140.991 309.8854,-140.991"/>
<polygon fill="#000000" stroke="#000000" points="306.3854,-140.9909 309.8854,-150.991 313.3854,-140.991 306.3854,-140.9909"/>
</g>
<!-- IconComponent -->
<g id="node2" class="node">
<title>IconComponent</title>
<polygon fill="#ffffb3" stroke="#000000" points="269.2078,-122 162.7922,-122 162.7922,-86 269.2078,-86 269.2078,-122"/>
<text text-anchor="middle" x="216" y="-99.8" font-family="Times,serif" font-size="14.00" fill="#000000">IconComponent</text>
</g>
<!-- IconComponent&#45;&gt;SharedModule -->
<g id="edge2" class="edge">
<title>IconComponent&#45;&gt;SharedModule</title>
<path fill="none" stroke="#000000" d="M251.4464,-122.1061C251.4464,-122.1061 251.4464,-140.991 251.4464,-140.991"/>
<polygon fill="#000000" stroke="#000000" points="247.9464,-140.9909 251.4464,-150.991 254.9464,-140.991 247.9464,-140.9909"/>
</g>
<!-- SharedServicesModule  -->
<g id="node4" class="node">
<title>SharedServicesModule </title>
<polygon fill="#fb8072" stroke="#000000" points="571.8448,-252 422.1552,-252 422.1552,-216 571.8448,-216 571.8448,-252"/>
<text text-anchor="middle" x="497" y="-229.8" font-family="Times,serif" font-size="14.00" fill="#000000">SharedServicesModule </text>
</g>
<!-- SharedModule&#45;&gt;SharedServicesModule  -->
<g id="edge3" class="edge">
<title>SharedModule&#45;&gt;SharedServicesModule </title>
<path fill="none" stroke="#000000" stroke-dasharray="5,2" d="M332.3646,-169C395.564,-169 497,-169 497,-169 497,-169 497,-205.8939 497,-205.8939"/>
<polygon fill="#000000" stroke="#000000" points="493.5001,-205.8938 497,-215.8939 500.5001,-205.8939 493.5001,-205.8938"/>
</g>
<!-- EntitiesModule  -->
<g id="node5" class="node">
<title>EntitiesModule </title>
<polygon fill="#fb8072" stroke="#000000" points="403.8241,-252 298.1759,-252 298.1759,-216 403.8241,-216 403.8241,-252"/>
<text text-anchor="middle" x="351" y="-229.8" font-family="Times,serif" font-size="14.00" fill="#000000">EntitiesModule </text>
</g>
<!-- SharedModule&#45;&gt;EntitiesModule  -->
<g id="edge4" class="edge">
<title>SharedModule&#45;&gt;EntitiesModule </title>
<path fill="none" stroke="#000000" stroke-dasharray="5,2" d="M315.1495,-187.1061C315.1495,-187.1061 315.1495,-205.991 315.1495,-205.991"/>
<polygon fill="#000000" stroke="#000000" points="311.6496,-205.9909 315.1495,-215.991 318.6496,-205.991 311.6496,-205.9909"/>
</g>
<!-- SpinnerComponent  -->
<g id="node6" class="node">
<title>SpinnerComponent </title>
<polygon fill="#fb8072" stroke="#000000" points="280.3814,-252 151.6186,-252 151.6186,-216 280.3814,-216 280.3814,-252"/>
<text text-anchor="middle" x="216" y="-229.8" font-family="Times,serif" font-size="14.00" fill="#000000">SpinnerComponent </text>
</g>
<!-- SharedModule&#45;&gt;SpinnerComponent  -->
<g id="edge5" class="edge">
<title>SharedModule&#45;&gt;SpinnerComponent </title>
<path fill="none" stroke="#000000" stroke-dasharray="5,2" d="M256.9897,-187.1061C256.9897,-187.1061 256.9897,-205.991 256.9897,-205.991"/>
<polygon fill="#000000" stroke="#000000" points="253.4897,-205.9909 256.9897,-215.991 260.4897,-205.991 253.4897,-205.9909"/>
</g>
<!-- IconComponent  -->
<g id="node7" class="node">
<title>IconComponent </title>
<polygon fill="#fb8072" stroke="#000000" points="133.708,-252 24.292,-252 24.292,-216 133.708,-216 133.708,-252"/>
<text text-anchor="middle" x="79" y="-229.8" font-family="Times,serif" font-size="14.00" fill="#000000">IconComponent </text>
</g>
<!-- SharedModule&#45;&gt;IconComponent  -->
<g id="edge6" class="edge">
<title>SharedModule&#45;&gt;IconComponent </title>
<path fill="none" stroke="#000000" stroke-dasharray="5,2" d="M233.6173,-169C173.2429,-169 79,-169 79,-169 79,-169 79,-205.8939 79,-205.8939"/>
<polygon fill="#000000" stroke="#000000" points="75.5001,-205.8938 79,-215.8939 82.5001,-205.8939 75.5001,-205.8938"/>
</g>
</g>
</svg>
