<?xml version="1.0" encoding="UTF-8" standalone="no"?>
<!DOCTYPE svg PUBLIC "-//W3C//DTD SVG 1.1//EN"
 "http://www.w3.org/Graphics/SVG/1.1/DTD/svg11.dtd">
<!-- Generated by graphviz version 2.40.1 (20161225.0304)
 -->
<!-- Title: dependencies Pages: 1 -->
<svg width="1385pt" height="284pt"
 viewBox="0.00 0.00 1385.00 284.00" xmlns="http://www.w3.org/2000/svg" xmlns:xlink="http://www.w3.org/1999/xlink">
<g id="graph0" class="graph" transform="scale(1 1) rotate(0) translate(4 280)">
<title>dependencies</title>
<polygon fill="#ffffff" stroke="transparent" points="-4,4 -4,-280 1381,-280 1381,4 -4,4"/>
<text text-anchor="start" x="667.5091" y="-42.4" font-family="sans-serif" font-weight="bold" font-size="14.00" fill="#000000">Legend</text>
<polygon fill="#ffffb3" stroke="transparent" points="454.5,-10 454.5,-30 474.5,-30 474.5,-10 454.5,-10"/>
<text text-anchor="start" x="478.129" y="-15.4" font-family="sans-serif" font-size="14.00" fill="#000000"> &#160;Declarations</text>
<polygon fill="#8dd3c7" stroke="transparent" points="567.5,-10 567.5,-30 587.5,-30 587.5,-10 567.5,-10"/>
<text text-anchor="start" x="591.2251" y="-15.4" font-family="sans-serif" font-size="14.00" fill="#000000"> &#160;Module</text>
<polygon fill="#80b1d3" stroke="transparent" points="653.5,-10 653.5,-30 673.5,-30 673.5,-10 653.5,-10"/>
<text text-anchor="start" x="677.2812" y="-15.4" font-family="sans-serif" font-size="14.00" fill="#000000"> &#160;Bootstrap</text>
<polygon fill="#fdb462" stroke="transparent" points="750.5,-10 750.5,-30 770.5,-30 770.5,-10 750.5,-10"/>
<text text-anchor="start" x="774.1732" y="-15.4" font-family="sans-serif" font-size="14.00" fill="#000000"> &#160;Providers</text>
<polygon fill="#fb8072" stroke="transparent" points="846.5,-10 846.5,-30 866.5,-30 866.5,-10 846.5,-10"/>
<text text-anchor="start" x="870.2258" y="-15.4" font-family="sans-serif" font-size="14.00" fill="#000000"> &#160;Exports</text>
<g id="clust1" class="cluster">
<title>cluster_DashboardModule</title>
<polygon fill="none" stroke="#000000" stroke-dasharray="1,5" points="8,-70 8,-268 1369,-268 1369,-70 8,-70"/>
</g>
<g id="clust2" class="cluster">
<title>cluster_DashboardModule_declarations</title>
<polygon fill="none" stroke="#000000" points="476,-78 476,-130 1361,-130 1361,-78 476,-78"/>
</g>
<g id="clust8" class="cluster">
<title>cluster_DashboardModule_imports</title>
<polygon fill="none" stroke="#000000" points="210,-78 210,-130 468,-130 468,-78 210,-78"/>
</g>
<g id="clust9" class="cluster">
<title>cluster_DashboardModule_exports</title>
<polygon fill="none" stroke="#000000" points="589,-208 589,-260 751,-260 751,-208 589,-208"/>
</g>
<g id="clust11" class="cluster">
<title>cluster_DashboardModule_providers</title>
<polygon fill="none" stroke="#000000" points="16,-78 16,-130 202,-130 202,-78 16,-78"/>
</g>
<!-- DashboardComponent -->
<g id="node1" class="node">
<title>DashboardComponent</title>
<polygon fill="#ffffb3" stroke="#000000" points="1352.9734,-122 1211.0266,-122 1211.0266,-86 1352.9734,-86 1352.9734,-122"/>
<text text-anchor="middle" x="1282" y="-99.8" font-family="Times,serif" font-size="14.00" fill="#000000">DashboardComponent</text>
</g>
<!-- DashboardModule -->
<g id="node6" class="node">
<title>DashboardModule</title>
<polygon fill="#8dd3c7" stroke="#000000" points="730.191,-187 727.191,-191 706.191,-191 703.191,-187 609.809,-187 609.809,-151 730.191,-151 730.191,-187"/>
<text text-anchor="middle" x="670" y="-164.8" font-family="Times,serif" font-size="14.00" fill="#000000">DashboardModule</text>
</g>
<!-- DashboardComponent&#45;&gt;DashboardModule -->
<g id="edge1" class="edge">
<title>DashboardComponent&#45;&gt;DashboardModule</title>
<path fill="none" stroke="#000000" d="M1282,-122.2921C1282,-144.2057 1282,-178 1282,-178 1282,-178 740.3558,-178 740.3558,-178"/>
<polygon fill="#000000" stroke="#000000" points="740.3558,-174.5001 730.3558,-178 740.3558,-181.5001 740.3558,-174.5001"/>
</g>
<!-- BimTabComponent -->
<g id="node2" class="node">
<title>BimTabComponent</title>
<polygon fill="#ffffb3" stroke="#000000" points="1192.7176,-122 1065.2824,-122 1065.2824,-86 1192.7176,-86 1192.7176,-122"/>
<text text-anchor="middle" x="1129" y="-99.8" font-family="Times,serif" font-size="14.00" fill="#000000">BimTabComponent</text>
</g>
<!-- BimTabComponent&#45;&gt;DashboardModule -->
<g id="edge2" class="edge">
<title>BimTabComponent&#45;&gt;DashboardModule</title>
<path fill="none" stroke="#000000" d="M1129,-122.1061C1129,-141.3391 1129,-169 1129,-169 1129,-169 740.4782,-169 740.4782,-169"/>
<polygon fill="#000000" stroke="#000000" points="740.4783,-165.5001 730.4782,-169 740.4782,-172.5001 740.4783,-165.5001"/>
</g>
<!-- BimByStatusesComponent -->
<g id="node3" class="node">
<title>BimByStatusesComponent</title>
<polygon fill="#ffffb3" stroke="#000000" points="1047.6693,-122 880.3307,-122 880.3307,-86 1047.6693,-86 1047.6693,-122"/>
<text text-anchor="middle" x="964" y="-99.8" font-family="Times,serif" font-size="14.00" fill="#000000">BimByStatusesComponent</text>
</g>
<!-- BimByStatusesComponent&#45;&gt;DashboardModule -->
<g id="edge3" class="edge">
<title>BimByStatusesComponent&#45;&gt;DashboardModule</title>
<path fill="none" stroke="#000000" d="M964,-122.027C964,-138.3976 964,-160 964,-160 964,-160 740.2047,-160 740.2047,-160"/>
<polygon fill="#000000" stroke="#000000" points="740.2048,-156.5001 730.2047,-160 740.2047,-163.5001 740.2048,-156.5001"/>
</g>
<!-- BimByDeductionsComponent -->
<g id="node4" class="node">
<title>BimByDeductionsComponent</title>
<polygon fill="#ffffb3" stroke="#000000" points="861.5489,-122 676.4511,-122 676.4511,-86 861.5489,-86 861.5489,-122"/>
<text text-anchor="middle" x="769" y="-99.8" font-family="Times,serif" font-size="14.00" fill="#000000">BimByDeductionsComponent</text>
</g>
<!-- BimByDeductionsComponent&#45;&gt;DashboardModule -->
<g id="edge4" class="edge">
<title>BimByDeductionsComponent&#45;&gt;DashboardModule</title>
<path fill="none" stroke="#000000" d="M703.1606,-122.1061C703.1606,-122.1061 703.1606,-140.991 703.1606,-140.991"/>
<polygon fill="#000000" stroke="#000000" points="699.6607,-140.9909 703.1606,-150.991 706.6607,-140.991 699.6607,-140.9909"/>
</g>
<!-- DrgUnitSelectorComponent -->
<g id="node5" class="node">
<title>DrgUnitSelectorComponent</title>
<polygon fill="#ffffb3" stroke="#000000" points="657.8557,-122 484.1443,-122 484.1443,-86 657.8557,-86 657.8557,-122"/>
<text text-anchor="middle" x="571" y="-99.8" font-family="Times,serif" font-size="14.00" fill="#000000">DrgUnitSelectorComponent</text>
</g>
<!-- DrgUnitSelectorComponent&#45;&gt;DashboardModule -->
<g id="edge5" class="edge">
<title>DrgUnitSelectorComponent&#45;&gt;DashboardModule</title>
<path fill="none" stroke="#000000" d="M633.9162,-122.1061C633.9162,-122.1061 633.9162,-140.991 633.9162,-140.991"/>
<polygon fill="#000000" stroke="#000000" points="630.4163,-140.9909 633.9162,-150.991 637.4163,-140.991 630.4163,-140.9909"/>
</g>
<!-- DashboardComponent  -->
<g id="node9" class="node">
<title>DashboardComponent </title>
<polygon fill="#fb8072" stroke="#000000" points="742.9742,-252 597.0258,-252 597.0258,-216 742.9742,-216 742.9742,-252"/>
<text text-anchor="middle" x="670" y="-229.8" font-family="Times,serif" font-size="14.00" fill="#000000">DashboardComponent </text>
</g>
<!-- DashboardModule&#45;&gt;DashboardComponent  -->
<g id="edge8" class="edge">
<title>DashboardModule&#45;&gt;DashboardComponent </title>
<path fill="none" stroke="#000000" stroke-dasharray="5,2" d="M670,-187.1061C670,-187.1061 670,-205.991 670,-205.991"/>
<polygon fill="#000000" stroke="#000000" points="666.5001,-205.9909 670,-215.991 673.5001,-205.991 666.5001,-205.9909"/>
</g>
<!-- SharedModule -->
<g id="node7" class="node">
<title>SharedModule</title>
<polygon fill="#8dd3c7" stroke="#000000" points="460.4231,-122 457.4231,-126 436.4231,-126 433.4231,-122 361.5769,-122 361.5769,-86 460.4231,-86 460.4231,-122"/>
<text text-anchor="middle" x="411" y="-99.8" font-family="Times,serif" font-size="14.00" fill="#000000">SharedModule</text>
</g>
<!-- SharedModule&#45;&gt;DashboardModule -->
<g id="edge6" class="edge">
<title>SharedModule&#45;&gt;DashboardModule</title>
<path fill="none" stroke="#000000" d="M411,-122.027C411,-138.3976 411,-160 411,-160 411,-160 599.6029,-160 599.6029,-160"/>
<polygon fill="#000000" stroke="#000000" points="599.6029,-163.5001 609.6029,-160 599.6028,-156.5001 599.6029,-163.5001"/>
</g>
<!-- CoreSharedModule -->
<g id="node8" class="node">
<title>CoreSharedModule</title>
<polygon fill="#8dd3c7" stroke="#000000" points="343.6345,-122 340.6345,-126 319.6345,-126 316.6345,-122 218.3655,-122 218.3655,-86 343.6345,-86 343.6345,-122"/>
<text text-anchor="middle" x="281" y="-99.8" font-family="Times,serif" font-size="14.00" fill="#000000">CoreSharedModule</text>
</g>
<!-- CoreSharedModule&#45;&gt;DashboardModule -->
<g id="edge7" class="edge">
<title>CoreSharedModule&#45;&gt;DashboardModule</title>
<path fill="none" stroke="#000000" d="M281,-122.1061C281,-141.3391 281,-169 281,-169 281,-169 599.6456,-169 599.6456,-169"/>
<polygon fill="#000000" stroke="#000000" points="599.6456,-172.5001 609.6456,-169 599.6455,-165.5001 599.6456,-172.5001"/>
</g>
<!-- BimDataConverter -->
<g id="node10" class="node">
<title>BimDataConverter</title>
<ellipse fill="#fdb462" stroke="#000000" cx="109" cy="-104" rx="84.5266" ry="18"/>
<text text-anchor="middle" x="109" y="-99.8" font-family="Times,serif" font-size="14.00" fill="#000000">BimDataConverter</text>
</g>
<!-- BimDataConverter&#45;&gt;DashboardModule -->
<g id="edge9" class="edge">
<title>BimDataConverter&#45;&gt;DashboardModule</title>
<path fill="none" stroke="#000000" d="M109,-122.2921C109,-144.2057 109,-178 109,-178 109,-178 599.6969,-178 599.6969,-178"/>
<polygon fill="#000000" stroke="#000000" points="599.6969,-181.5001 609.6969,-178 599.6969,-174.5001 599.6969,-181.5001"/>
</g>
</g>
</svg>
