<?xml version="1.0" encoding="UTF-8" standalone="no"?>
<!DOCTYPE svg PUBLIC "-//W3C//DTD SVG 1.1//EN"
 "http://www.w3.org/Graphics/SVG/1.1/DTD/svg11.dtd">
<!-- Generated by graphviz version 2.40.1 (20161225.0304)
 -->
<!-- Title: dependencies Pages: 1 -->
<svg width="3053pt" height="284pt"
 viewBox="0.00 0.00 3053.00 284.00" xmlns="http://www.w3.org/2000/svg" xmlns:xlink="http://www.w3.org/1999/xlink">
<g id="graph0" class="graph" transform="scale(1 1) rotate(0) translate(4 280)">
<title>dependencies</title>
<polygon fill="#ffffff" stroke="transparent" points="-4,4 -4,-280 3049,-280 3049,4 -4,4"/>
<text text-anchor="start" x="1501.5091" y="-42.4" font-family="sans-serif" font-weight="bold" font-size="14.00" fill="#000000">Legend</text>
<polygon fill="#ffffb3" stroke="transparent" points="1288.5,-10 1288.5,-30 1308.5,-30 1308.5,-10 1288.5,-10"/>
<text text-anchor="start" x="1312.129" y="-15.4" font-family="sans-serif" font-size="14.00" fill="#000000"> &#160;Declarations</text>
<polygon fill="#8dd3c7" stroke="transparent" points="1401.5,-10 1401.5,-30 1421.5,-30 1421.5,-10 1401.5,-10"/>
<text text-anchor="start" x="1425.2251" y="-15.4" font-family="sans-serif" font-size="14.00" fill="#000000"> &#160;Module</text>
<polygon fill="#80b1d3" stroke="transparent" points="1487.5,-10 1487.5,-30 1507.5,-30 1507.5,-10 1487.5,-10"/>
<text text-anchor="start" x="1511.2812" y="-15.4" font-family="sans-serif" font-size="14.00" fill="#000000"> &#160;Bootstrap</text>
<polygon fill="#fdb462" stroke="transparent" points="1584.5,-10 1584.5,-30 1604.5,-30 1604.5,-10 1584.5,-10"/>
<text text-anchor="start" x="1608.1732" y="-15.4" font-family="sans-serif" font-size="14.00" fill="#000000"> &#160;Providers</text>
<polygon fill="#fb8072" stroke="transparent" points="1680.5,-10 1680.5,-30 1700.5,-30 1700.5,-10 1680.5,-10"/>
<text text-anchor="start" x="1704.2258" y="-15.4" font-family="sans-serif" font-size="14.00" fill="#000000"> &#160;Exports</text>
<g id="clust1" class="cluster">
<title>cluster_CoreSharedModule</title>
<polygon fill="none" stroke="#000000" stroke-dasharray="1,5" points="8,-70 8,-268 3037,-268 3037,-70 8,-70"/>
</g>
<g id="clust2" class="cluster">
<title>cluster_CoreSharedModule_declarations</title>
<polygon fill="none" stroke="#000000" points="1641,-78 1641,-130 3029,-130 3029,-78 1641,-78"/>
</g>
<g id="clust13" class="cluster">
<title>cluster_CoreSharedModule_imports</title>
<polygon fill="none" stroke="#000000" points="1519,-78 1519,-130 1633,-130 1633,-78 1519,-78"/>
</g>
<g id="clust14" class="cluster">
<title>cluster_CoreSharedModule_exports</title>
<polygon fill="none" stroke="#000000" points="929,-208 929,-260 2354,-260 2354,-208 929,-208"/>
</g>
<g id="clust16" class="cluster">
<title>cluster_CoreSharedModule_providers</title>
<polygon fill="none" stroke="#000000" points="16,-78 16,-130 1511,-130 1511,-78 16,-78"/>
</g>
<!-- PieComponent -->
<g id="node1" class="node">
<title>PieComponent</title>
<polygon fill="#ffffb3" stroke="#000000" points="3020.7204,-122 2921.2796,-122 2921.2796,-86 3020.7204,-86 3020.7204,-122"/>
<text text-anchor="middle" x="2971" y="-99.8" font-family="Times,serif" font-size="14.00" fill="#000000">PieComponent</text>
</g>
<!-- CoreSharedModule -->
<g id="node11" class="node">
<title>CoreSharedModule</title>
<polygon fill="#8dd3c7" stroke="#000000" points="1702.6345,-187 1699.6345,-191 1678.6345,-191 1675.6345,-187 1577.3655,-187 1577.3655,-151 1702.6345,-151 1702.6345,-187"/>
<text text-anchor="middle" x="1640" y="-164.8" font-family="Times,serif" font-size="14.00" fill="#000000">CoreSharedModule</text>
</g>
<!-- PieComponent&#45;&gt;CoreSharedModule -->
<g id="edge1" class="edge">
<title>PieComponent&#45;&gt;CoreSharedModule</title>
<path fill="none" stroke="#000000" d="M2971,-122.2843C2971,-143.3211 2971,-175 2971,-175 2971,-175 1712.8559,-175 1712.8559,-175"/>
<polygon fill="#000000" stroke="#000000" points="1712.8559,-171.5001 1702.8559,-175 1712.8558,-178.5001 1712.8559,-171.5001"/>
</g>
<!-- TreemapComponent -->
<g id="node2" class="node">
<title>TreemapComponent</title>
<polygon fill="#ffffb3" stroke="#000000" points="2903.58,-122 2772.42,-122 2772.42,-86 2903.58,-86 2903.58,-122"/>
<text text-anchor="middle" x="2838" y="-99.8" font-family="Times,serif" font-size="14.00" fill="#000000">TreemapComponent</text>
</g>
<!-- TreemapComponent&#45;&gt;CoreSharedModule -->
<g id="edge2" class="edge">
<title>TreemapComponent&#45;&gt;CoreSharedModule</title>
<path fill="none" stroke="#000000" d="M2838,-122.2228C2838,-142.3652 2838,-172 2838,-172 2838,-172 1712.7229,-172 1712.7229,-172"/>
<polygon fill="#000000" stroke="#000000" points="1712.723,-168.5001 1702.7229,-172 1712.7229,-175.5001 1712.723,-168.5001"/>
</g>
<!-- MysqlDateToDatePipe -->
<g id="node3" class="node">
<title>MysqlDateToDatePipe</title>
<polygon fill="#ffffb3" stroke="#000000" points="2754.573,-122 2609.427,-122 2609.427,-86 2754.573,-86 2754.573,-122"/>
<text text-anchor="middle" x="2682" y="-99.8" font-family="Times,serif" font-size="14.00" fill="#000000">MysqlDateToDatePipe</text>
</g>
<!-- MysqlDateToDatePipe&#45;&gt;CoreSharedModule -->
<g id="edge3" class="edge">
<title>MysqlDateToDatePipe&#45;&gt;CoreSharedModule</title>
<path fill="none" stroke="#000000" d="M2682,-122.1061C2682,-141.3391 2682,-169 2682,-169 2682,-169 1712.8352,-169 1712.8352,-169"/>
<polygon fill="#000000" stroke="#000000" points="1712.8352,-165.5001 1702.8352,-169 1712.8351,-172.5001 1712.8352,-165.5001"/>
</g>
<!-- DateToMysqlDatePipe -->
<g id="node4" class="node">
<title>DateToMysqlDatePipe</title>
<polygon fill="#ffffb3" stroke="#000000" points="2591.573,-122 2446.427,-122 2446.427,-86 2591.573,-86 2591.573,-122"/>
<text text-anchor="middle" x="2519" y="-99.8" font-family="Times,serif" font-size="14.00" fill="#000000">DateToMysqlDatePipe</text>
</g>
<!-- DateToMysqlDatePipe&#45;&gt;CoreSharedModule -->
<g id="edge4" class="edge">
<title>DateToMysqlDatePipe&#45;&gt;CoreSharedModule</title>
<path fill="none" stroke="#000000" d="M2519,-122.2222C2519,-140.8285 2519,-167 2519,-167 2519,-167 1712.8628,-167 1712.8628,-167"/>
<polygon fill="#000000" stroke="#000000" points="1712.8628,-163.5001 1702.8628,-167 1712.8627,-170.5001 1712.8628,-163.5001"/>
</g>
<!-- AmountPipe -->
<g id="node5" class="node">
<title>AmountPipe</title>
<polygon fill="#ffffb3" stroke="#000000" points="2428.2759,-122 2341.7241,-122 2341.7241,-86 2428.2759,-86 2428.2759,-122"/>
<text text-anchor="middle" x="2385" y="-99.8" font-family="Times,serif" font-size="14.00" fill="#000000">AmountPipe</text>
</g>
<!-- AmountPipe&#45;&gt;CoreSharedModule -->
<g id="edge5" class="edge">
<title>AmountPipe&#45;&gt;CoreSharedModule</title>
<path fill="none" stroke="#000000" d="M2387.374,-122.002C2387.374,-139.6754 2387.374,-164 2387.374,-164 2387.374,-164 1712.7555,-164 1712.7555,-164"/>
<polygon fill="#000000" stroke="#000000" points="1712.7556,-160.5001 1702.7555,-164 1712.7555,-167.5001 1712.7556,-160.5001"/>
</g>
<!-- ButtonModalComponent -->
<g id="node6" class="node">
<title>ButtonModalComponent</title>
<polygon fill="#ffffb3" stroke="#000000" points="2324,-122 2168,-122 2168,-86 2324,-86 2324,-122"/>
<text text-anchor="middle" x="2246" y="-99.8" font-family="Times,serif" font-size="14.00" fill="#000000">ButtonModalComponent</text>
</g>
<!-- ButtonModalComponent&#45;&gt;CoreSharedModule -->
<g id="edge6" class="edge">
<title>ButtonModalComponent&#45;&gt;CoreSharedModule</title>
<path fill="none" stroke="#000000" d="M2196.645,-122.0336C2196.645,-139.0597 2196.645,-162 2196.645,-162 2196.645,-162 1712.7722,-162 1712.7722,-162"/>
<polygon fill="#000000" stroke="#000000" points="1712.7722,-158.5001 1702.7722,-162 1712.7722,-165.5001 1712.7722,-158.5001"/>
</g>
<!-- CountryPipe -->
<g id="node7" class="node">
<title>CountryPipe</title>
<polygon fill="#ffffb3" stroke="#000000" points="2150.2759,-122 2063.7241,-122 2063.7241,-86 2150.2759,-86 2150.2759,-122"/>
<text text-anchor="middle" x="2107" y="-99.8" font-family="Times,serif" font-size="14.00" fill="#000000">CountryPipe</text>
</g>
<!-- CountryPipe&#45;&gt;CoreSharedModule -->
<g id="edge7" class="edge">
<title>CountryPipe&#45;&gt;CoreSharedModule</title>
<path fill="none" stroke="#000000" d="M2067.9494,-122.0091C2067.9494,-138.0494 2067.9494,-159 2067.9494,-159 2067.9494,-159 1712.6858,-159 1712.6858,-159"/>
<polygon fill="#000000" stroke="#000000" points="1712.6859,-155.5001 1702.6858,-159 1712.6858,-162.5001 1712.6859,-155.5001"/>
</g>
<!-- I18nLabelPipe -->
<g id="node8" class="node">
<title>I18nLabelPipe</title>
<polygon fill="#ffffb3" stroke="#000000" points="2045.4217,-122 1946.5783,-122 1946.5783,-86 2045.4217,-86 2045.4217,-122"/>
<text text-anchor="middle" x="1996" y="-99.8" font-family="Times,serif" font-size="14.00" fill="#000000">I18nLabelPipe</text>
</g>
<!-- I18nLabelPipe&#45;&gt;CoreSharedModule -->
<g id="edge8" class="edge">
<title>I18nLabelPipe&#45;&gt;CoreSharedModule</title>
<path fill="none" stroke="#000000" d="M1996,-122.2396C1996,-137.5706 1996,-157 1996,-157 1996,-157 1712.8262,-157 1712.8262,-157"/>
<polygon fill="#000000" stroke="#000000" points="1712.8262,-153.5001 1702.8262,-157 1712.8261,-160.5001 1712.8262,-153.5001"/>
</g>
<!-- InputToggleComponent -->
<g id="node9" class="node">
<title>InputToggleComponent</title>
<polygon fill="#ffffb3" stroke="#000000" points="1929.0421,-122 1778.9579,-122 1778.9579,-86 1929.0421,-86 1929.0421,-122"/>
<text text-anchor="middle" x="1854" y="-99.8" font-family="Times,serif" font-size="14.00" fill="#000000">InputToggleComponent</text>
</g>
<!-- InputToggleComponent&#45;&gt;CoreSharedModule -->
<g id="edge9" class="edge">
<title>InputToggleComponent&#45;&gt;CoreSharedModule</title>
<path fill="none" stroke="#000000" d="M1842.0079,-122.0511C1842.0079,-136.373 1842.0079,-154 1842.0079,-154 1842.0079,-154 1712.8092,-154 1712.8092,-154"/>
<polygon fill="#000000" stroke="#000000" points="1712.8093,-150.5001 1702.8092,-154 1712.8092,-157.5001 1712.8093,-150.5001"/>
</g>
<!-- FlagCountryPipe -->
<g id="node10" class="node">
<title>FlagCountryPipe</title>
<polygon fill="#ffffb3" stroke="#000000" points="1760.6639,-122 1649.3361,-122 1649.3361,-86 1760.6639,-86 1760.6639,-122"/>
<text text-anchor="middle" x="1705" y="-99.8" font-family="Times,serif" font-size="14.00" fill="#000000">FlagCountryPipe</text>
</g>
<!-- FlagCountryPipe&#45;&gt;CoreSharedModule -->
<g id="edge10" class="edge">
<title>FlagCountryPipe&#45;&gt;CoreSharedModule</title>
<path fill="none" stroke="#000000" d="M1675.9927,-122.1061C1675.9927,-122.1061 1675.9927,-140.991 1675.9927,-140.991"/>
<polygon fill="#000000" stroke="#000000" points="1672.4927,-140.9909 1675.9927,-150.991 1679.4927,-140.991 1672.4927,-140.9909"/>
</g>
<!-- PieComponent  -->
<g id="node13" class="node">
<title>PieComponent </title>
<polygon fill="#fb8072" stroke="#000000" points="2346.2206,-252 2243.7794,-252 2243.7794,-216 2346.2206,-216 2346.2206,-252"/>
<text text-anchor="middle" x="2295" y="-229.8" font-family="Times,serif" font-size="14.00" fill="#000000">PieComponent </text>
</g>
<!-- CoreSharedModule&#45;&gt;PieComponent  -->
<g id="edge12" class="edge">
<title>CoreSharedModule&#45;&gt;PieComponent </title>
<path fill="none" stroke="#000000" stroke-dasharray="5,2" d="M1702.9044,-177C1864.9062,-177 2283.82,-177 2283.82,-177 2283.82,-177 2283.82,-205.9648 2283.82,-205.9648"/>
<polygon fill="#000000" stroke="#000000" points="2280.32,-205.9648 2283.82,-215.9648 2287.32,-205.9649 2280.32,-205.9648"/>
</g>
<!-- TreemapComponent  -->
<g id="node14" class="node">
<title>TreemapComponent </title>
<polygon fill="#fb8072" stroke="#000000" points="2225.0807,-252 2090.9193,-252 2090.9193,-216 2225.0807,-216 2225.0807,-252"/>
<text text-anchor="middle" x="2158" y="-229.8" font-family="Times,serif" font-size="14.00" fill="#000000">TreemapComponent </text>
</g>
<!-- CoreSharedModule&#45;&gt;TreemapComponent  -->
<g id="edge13" class="edge">
<title>CoreSharedModule&#45;&gt;TreemapComponent </title>
<path fill="none" stroke="#000000" stroke-dasharray="5,2" d="M1702.8234,-180C1833.0819,-180 2120.5489,-180 2120.5489,-180 2120.5489,-180 2120.5489,-205.7181 2120.5489,-205.7181"/>
<polygon fill="#000000" stroke="#000000" points="2117.049,-205.718 2120.5489,-215.7181 2124.049,-205.7181 2117.049,-205.718"/>
</g>
<!-- MysqlDateToDatePipe  -->
<g id="node15" class="node">
<title>MysqlDateToDatePipe </title>
<polygon fill="#fb8072" stroke="#000000" points="2072.0736,-252 1923.9264,-252 1923.9264,-216 2072.0736,-216 2072.0736,-252"/>
<text text-anchor="middle" x="1998" y="-229.8" font-family="Times,serif" font-size="14.00" fill="#000000">MysqlDateToDatePipe </text>
</g>
<!-- CoreSharedModule&#45;&gt;MysqlDateToDatePipe  -->
<g id="edge14" class="edge">
<title>CoreSharedModule&#45;&gt;MysqlDateToDatePipe </title>
<path fill="none" stroke="#000000" stroke-dasharray="5,2" d="M1702.8404,-182C1790.279,-182 1938.0302,-182 1938.0302,-182 1938.0302,-182 1938.0302,-205.8129 1938.0302,-205.8129"/>
<polygon fill="#000000" stroke="#000000" points="1934.5302,-205.8129 1938.0302,-215.8129 1941.5302,-205.813 1934.5302,-205.8129"/>
</g>
<!-- DateToMysqlDatePipe  -->
<g id="node16" class="node">
<title>DateToMysqlDatePipe </title>
<polygon fill="#fb8072" stroke="#000000" points="1905.0736,-252 1756.9264,-252 1756.9264,-216 1905.0736,-216 1905.0736,-252"/>
<text text-anchor="middle" x="1831" y="-229.8" font-family="Times,serif" font-size="14.00" fill="#000000">DateToMysqlDatePipe </text>
</g>
<!-- CoreSharedModule&#45;&gt;DateToMysqlDatePipe  -->
<g id="edge15" class="edge">
<title>CoreSharedModule&#45;&gt;DateToMysqlDatePipe </title>
<path fill="none" stroke="#000000" stroke-dasharray="5,2" d="M1702.9894,-185C1736.0556,-185 1769.7805,-185 1769.7805,-185 1769.7805,-185 1769.7805,-205.7542 1769.7805,-205.7542"/>
<polygon fill="#000000" stroke="#000000" points="1766.2806,-205.7542 1769.7805,-215.7542 1773.2806,-205.7542 1766.2806,-205.7542"/>
</g>
<!-- AmountPipe  -->
<g id="node17" class="node">
<title>AmountPipe </title>
<polygon fill="#fb8072" stroke="#000000" points="1739.276,-252 1648.724,-252 1648.724,-216 1739.276,-216 1739.276,-252"/>
<text text-anchor="middle" x="1694" y="-229.8" font-family="Times,serif" font-size="14.00" fill="#000000">AmountPipe </text>
</g>
<!-- CoreSharedModule&#45;&gt;AmountPipe  -->
<g id="edge16" class="edge">
<title>CoreSharedModule&#45;&gt;AmountPipe </title>
<path fill="none" stroke="#000000" stroke-dasharray="5,2" d="M1675.8396,-187.1061C1675.8396,-187.1061 1675.8396,-205.991 1675.8396,-205.991"/>
<polygon fill="#000000" stroke="#000000" points="1672.3397,-205.9909 1675.8396,-215.991 1679.3397,-205.991 1672.3397,-205.9909"/>
</g>
<!-- CountryPipe  -->
<g id="node18" class="node">
<title>CountryPipe </title>
<polygon fill="#fb8072" stroke="#000000" points="1631.276,-252 1540.724,-252 1540.724,-216 1631.276,-216 1631.276,-252"/>
<text text-anchor="middle" x="1586" y="-229.8" font-family="Times,serif" font-size="14.00" fill="#000000">CountryPipe </text>
</g>
<!-- CoreSharedModule&#45;&gt;CountryPipe  -->
<g id="edge17" class="edge">
<title>CoreSharedModule&#45;&gt;CountryPipe </title>
<path fill="none" stroke="#000000" stroke-dasharray="5,2" d="M1604.1604,-187.1061C1604.1604,-187.1061 1604.1604,-205.991 1604.1604,-205.991"/>
<polygon fill="#000000" stroke="#000000" points="1600.6605,-205.9909 1604.1604,-215.991 1607.6605,-205.991 1600.6605,-205.9909"/>
</g>
<!-- FlagCountryPipe  -->
<g id="node19" class="node">
<title>FlagCountryPipe </title>
<polygon fill="#fb8072" stroke="#000000" points="1522.6635,-252 1407.3365,-252 1407.3365,-216 1522.6635,-216 1522.6635,-252"/>
<text text-anchor="middle" x="1465" y="-229.8" font-family="Times,serif" font-size="14.00" fill="#000000">FlagCountryPipe </text>
</g>
<!-- CoreSharedModule&#45;&gt;FlagCountryPipe  -->
<g id="edge18" class="edge">
<title>CoreSharedModule&#45;&gt;FlagCountryPipe </title>
<path fill="none" stroke="#000000" stroke-dasharray="5,2" d="M1577.1304,-185C1545.0763,-185 1512.7698,-185 1512.7698,-185 1512.7698,-185 1512.7698,-205.7542 1512.7698,-205.7542"/>
<polygon fill="#000000" stroke="#000000" points="1509.2699,-205.7542 1512.7698,-215.7542 1516.2699,-205.7542 1509.2699,-205.7542"/>
</g>
<!-- I18nLabelPipe  -->
<g id="node20" class="node">
<title>I18nLabelPipe </title>
<polygon fill="#fb8072" stroke="#000000" points="1388.9208,-252 1287.0792,-252 1287.0792,-216 1388.9208,-216 1388.9208,-252"/>
<text text-anchor="middle" x="1338" y="-229.8" font-family="Times,serif" font-size="14.00" fill="#000000">I18nLabelPipe </text>
</g>
<!-- CoreSharedModule&#45;&gt;I18nLabelPipe  -->
<g id="edge19" class="edge">
<title>CoreSharedModule&#45;&gt;I18nLabelPipe </title>
<path fill="none" stroke="#000000" stroke-dasharray="5,2" d="M1577.3394,-182C1499.5498,-182 1377.0013,-182 1377.0013,-182 1377.0013,-182 1377.0013,-205.8129 1377.0013,-205.8129"/>
<polygon fill="#000000" stroke="#000000" points="1373.5014,-205.8129 1377.0013,-215.8129 1380.5014,-205.813 1373.5014,-205.8129"/>
</g>
<!-- ButtonModalComponent  -->
<g id="node21" class="node">
<title>ButtonModalComponent </title>
<polygon fill="#fb8072" stroke="#000000" points="1268.5008,-252 1109.4992,-252 1109.4992,-216 1268.5008,-216 1268.5008,-252"/>
<text text-anchor="middle" x="1189" y="-229.8" font-family="Times,serif" font-size="14.00" fill="#000000">ButtonModalComponent </text>
</g>
<!-- CoreSharedModule&#45;&gt;ButtonModalComponent  -->
<g id="edge20" class="edge">
<title>CoreSharedModule&#45;&gt;ButtonModalComponent </title>
<path fill="none" stroke="#000000" stroke-dasharray="5,2" d="M1577.3229,-180C1457.0712,-180 1205.7697,-180 1205.7697,-180 1205.7697,-180 1205.7697,-205.7181 1205.7697,-205.7181"/>
<polygon fill="#000000" stroke="#000000" points="1202.2698,-205.718 1205.7697,-215.7181 1209.2698,-205.7181 1202.2698,-205.718"/>
</g>
<!-- InputToggleComponent  -->
<g id="node22" class="node">
<title>InputToggleComponent </title>
<polygon fill="#fb8072" stroke="#000000" points="1091.0414,-252 936.9586,-252 936.9586,-216 1091.0414,-216 1091.0414,-252"/>
<text text-anchor="middle" x="1014" y="-229.8" font-family="Times,serif" font-size="14.00" fill="#000000">InputToggleComponent </text>
</g>
<!-- CoreSharedModule&#45;&gt;InputToggleComponent  -->
<g id="edge21" class="edge">
<title>CoreSharedModule&#45;&gt;InputToggleComponent </title>
<path fill="none" stroke="#000000" stroke-dasharray="5,2" d="M1577.086,-177C1420.8888,-177 1027.9014,-177 1027.9014,-177 1027.9014,-177 1027.9014,-205.9648 1027.9014,-205.9648"/>
<polygon fill="#000000" stroke="#000000" points="1024.4015,-205.9648 1027.9014,-215.9648 1031.4015,-205.9649 1024.4015,-205.9648"/>
</g>
<!-- SharedModule -->
<g id="node12" class="node">
<title>SharedModule</title>
<polygon fill="#8dd3c7" stroke="#000000" points="1625.4231,-122 1622.4231,-126 1601.4231,-126 1598.4231,-122 1526.5769,-122 1526.5769,-86 1625.4231,-86 1625.4231,-122"/>
<text text-anchor="middle" x="1576" y="-99.8" font-family="Times,serif" font-size="14.00" fill="#000000">SharedModule</text>
</g>
<!-- SharedModule&#45;&gt;CoreSharedModule -->
<g id="edge11" class="edge">
<title>SharedModule&#45;&gt;CoreSharedModule</title>
<path fill="none" stroke="#000000" d="M1601.1971,-122.1061C1601.1971,-122.1061 1601.1971,-140.991 1601.1971,-140.991"/>
<polygon fill="#000000" stroke="#000000" points="1597.6971,-140.9909 1601.1971,-150.991 1604.6971,-140.991 1597.6971,-140.9909"/>
</g>
<!-- SectionService -->
<g id="node23" class="node">
<title>SectionService</title>
<ellipse fill="#fdb462" stroke="#000000" cx="1434" cy="-104" rx="68.9158" ry="18"/>
<text text-anchor="middle" x="1434" y="-99.8" font-family="Times,serif" font-size="14.00" fill="#000000">SectionService</text>
</g>
<!-- SectionService&#45;&gt;CoreSharedModule -->
<g id="edge22" class="edge">
<title>SectionService&#45;&gt;CoreSharedModule</title>
<path fill="none" stroke="#000000" d="M1455.1881,-121.2072C1455.1881,-135.6704 1455.1881,-154 1455.1881,-154 1455.1881,-154 1567.1732,-154 1567.1732,-154"/>
<polygon fill="#000000" stroke="#000000" points="1567.1733,-157.5001 1577.1732,-154 1567.1732,-150.5001 1567.1733,-157.5001"/>
</g>
<!-- DrgsRepartitionService -->
<g id="node24" class="node">
<title>DrgsRepartitionService</title>
<ellipse fill="#fdb462" stroke="#000000" cx="1245" cy="-104" rx="102.4217" ry="18"/>
<text text-anchor="middle" x="1245" y="-99.8" font-family="Times,serif" font-size="14.00" fill="#000000">DrgsRepartitionService</text>
</g>
<!-- DrgsRepartitionService&#45;&gt;CoreSharedModule -->
<g id="edge23" class="edge">
<title>DrgsRepartitionService&#45;&gt;CoreSharedModule</title>
<path fill="none" stroke="#000000" d="M1317.1251,-116.8298C1317.1251,-132.5153 1317.1251,-157 1317.1251,-157 1317.1251,-157 1567.3636,-157 1567.3636,-157"/>
<polygon fill="#000000" stroke="#000000" points="1567.3637,-160.5001 1577.3636,-157 1567.3636,-153.5001 1567.3637,-160.5001"/>
</g>
<!-- DeductionService -->
<g id="node25" class="node">
<title>DeductionService</title>
<ellipse fill="#fdb462" stroke="#000000" cx="1045" cy="-104" rx="80.4364" ry="18"/>
<text text-anchor="middle" x="1045" y="-99.8" font-family="Times,serif" font-size="14.00" fill="#000000">DeductionService</text>
</g>
<!-- DeductionService&#45;&gt;CoreSharedModule -->
<g id="edge24" class="edge">
<title>DeductionService&#45;&gt;CoreSharedModule</title>
<path fill="none" stroke="#000000" d="M1117.2339,-112.1154C1117.2339,-127.4146 1117.2339,-159 1117.2339,-159 1117.2339,-159 1567.202,-159 1567.202,-159"/>
<polygon fill="#000000" stroke="#000000" points="1567.2021,-162.5001 1577.202,-159 1567.202,-155.5001 1567.2021,-162.5001"/>
</g>
<!-- ColorService -->
<g id="node26" class="node">
<title>ColorService</title>
<ellipse fill="#fdb462" stroke="#000000" cx="885" cy="-104" rx="61.975" ry="18"/>
<text text-anchor="middle" x="885" y="-99.8" font-family="Times,serif" font-size="14.00" fill="#000000">ColorService</text>
</g>
<!-- ColorService&#45;&gt;CoreSharedModule -->
<g id="edge25" class="edge">
<title>ColorService&#45;&gt;CoreSharedModule</title>
<path fill="none" stroke="#000000" d="M941.9834,-111.1119C941.9834,-126.5996 941.9834,-162 941.9834,-162 941.9834,-162 1567.1333,-162 1567.1333,-162"/>
<polygon fill="#000000" stroke="#000000" points="1567.1333,-165.5001 1577.1333,-162 1567.1333,-158.5001 1567.1333,-165.5001"/>
</g>
<!-- RoleService -->
<g id="node27" class="node">
<title>RoleService</title>
<ellipse fill="#fdb462" stroke="#000000" cx="747" cy="-104" rx="58.4628" ry="18"/>
<text text-anchor="middle" x="747" y="-99.8" font-family="Times,serif" font-size="14.00" fill="#000000">RoleService</text>
</g>
<!-- RoleService&#45;&gt;CoreSharedModule -->
<g id="edge26" class="edge">
<title>RoleService&#45;&gt;CoreSharedModule</title>
<path fill="none" stroke="#000000" d="M747,-122.002C747,-139.6754 747,-164 747,-164 747,-164 1567.206,-164 1567.206,-164"/>
<polygon fill="#000000" stroke="#000000" points="1567.206,-167.5001 1577.206,-164 1567.2059,-160.5001 1567.206,-167.5001"/>
</g>
<!-- GsfaService -->
<g id="node28" class="node">
<title>GsfaService</title>
<ellipse fill="#fdb462" stroke="#000000" cx="613" cy="-104" rx="58.4415" ry="18"/>
<text text-anchor="middle" x="613" y="-99.8" font-family="Times,serif" font-size="14.00" fill="#000000">GsfaService</text>
</g>
<!-- GsfaService&#45;&gt;CoreSharedModule -->
<g id="edge27" class="edge">
<title>GsfaService&#45;&gt;CoreSharedModule</title>
<path fill="none" stroke="#000000" d="M613,-122.2222C613,-140.8285 613,-167 613,-167 613,-167 1567.3025,-167 1567.3025,-167"/>
<polygon fill="#000000" stroke="#000000" points="1567.3026,-170.5001 1577.3025,-167 1567.3025,-163.5001 1567.3026,-170.5001"/>
</g>
<!-- OrganizationService -->
<g id="node29" class="node">
<title>OrganizationService</title>
<ellipse fill="#fdb462" stroke="#000000" cx="446" cy="-104" rx="90.3062" ry="18"/>
<text text-anchor="middle" x="446" y="-99.8" font-family="Times,serif" font-size="14.00" fill="#000000">OrganizationService</text>
</g>
<!-- OrganizationService&#45;&gt;CoreSharedModule -->
<g id="edge28" class="edge">
<title>OrganizationService&#45;&gt;CoreSharedModule</title>
<path fill="none" stroke="#000000" d="M446,-122.1061C446,-141.3391 446,-169 446,-169 446,-169 1567.0681,-169 1567.0681,-169"/>
<polygon fill="#000000" stroke="#000000" points="1567.0681,-172.5001 1577.0681,-169 1567.068,-165.5001 1567.0681,-172.5001"/>
</g>
<!-- CountryService -->
<g id="node30" class="node">
<title>CountryService</title>
<ellipse fill="#fdb462" stroke="#000000" cx="266" cy="-104" rx="71.7892" ry="18"/>
<text text-anchor="middle" x="266" y="-99.8" font-family="Times,serif" font-size="14.00" fill="#000000">CountryService</text>
</g>
<!-- CountryService&#45;&gt;CoreSharedModule -->
<g id="edge29" class="edge">
<title>CountryService&#45;&gt;CoreSharedModule</title>
<path fill="none" stroke="#000000" d="M266,-122.2228C266,-142.3652 266,-172 266,-172 266,-172 1566.939,-172 1566.939,-172"/>
<polygon fill="#000000" stroke="#000000" points="1566.939,-175.5001 1576.939,-172 1566.9389,-168.5001 1566.939,-175.5001"/>
</g>
<!-- CurrencyService -->
<g id="node31" class="node">
<title>CurrencyService</title>
<ellipse fill="#fdb462" stroke="#000000" cx="100" cy="-104" rx="75.8412" ry="18"/>
<text text-anchor="middle" x="100" y="-99.8" font-family="Times,serif" font-size="14.00" fill="#000000">CurrencyService</text>
</g>
<!-- CurrencyService&#45;&gt;CoreSharedModule -->
<g id="edge30" class="edge">
<title>CurrencyService&#45;&gt;CoreSharedModule</title>
<path fill="none" stroke="#000000" d="M100,-122.2843C100,-143.3211 100,-175 100,-175 100,-175 1567.2418,-175 1567.2418,-175"/>
<polygon fill="#000000" stroke="#000000" points="1567.2418,-178.5001 1577.2418,-175 1567.2418,-171.5001 1567.2418,-178.5001"/>
</g>
</g>
</svg>
