<?xml version="1.0" encoding="UTF-8" standalone="no"?>
<!DOCTYPE svg PUBLIC "-//W3C//DTD SVG 1.1//EN"
 "http://www.w3.org/Graphics/SVG/1.1/DTD/svg11.dtd">
<!-- Generated by graphviz version 2.40.1 (20161225.0304)
 -->
<!-- Title: dependencies Pages: 1 -->
<svg width="2116pt" height="284pt"
 viewBox="0.00 0.00 2116.00 284.00" xmlns="http://www.w3.org/2000/svg" xmlns:xlink="http://www.w3.org/1999/xlink">
<g id="graph0" class="graph" transform="scale(1 1) rotate(0) translate(4 280)">
<title>dependencies</title>
<polygon fill="#ffffff" stroke="transparent" points="-4,4 -4,-280 2112,-280 2112,4 -4,4"/>
<text text-anchor="start" x="1033.0091" y="-42.4" font-family="sans-serif" font-weight="bold" font-size="14.00" fill="#000000">Legend</text>
<polygon fill="#ffffb3" stroke="transparent" points="820,-10 820,-30 840,-30 840,-10 820,-10"/>
<text text-anchor="start" x="843.629" y="-15.4" font-family="sans-serif" font-size="14.00" fill="#000000"> &#160;Declarations</text>
<polygon fill="#8dd3c7" stroke="transparent" points="933,-10 933,-30 953,-30 953,-10 933,-10"/>
<text text-anchor="start" x="956.7251" y="-15.4" font-family="sans-serif" font-size="14.00" fill="#000000"> &#160;Module</text>
<polygon fill="#80b1d3" stroke="transparent" points="1019,-10 1019,-30 1039,-30 1039,-10 1019,-10"/>
<text text-anchor="start" x="1042.7812" y="-15.4" font-family="sans-serif" font-size="14.00" fill="#000000"> &#160;Bootstrap</text>
<polygon fill="#fdb462" stroke="transparent" points="1116,-10 1116,-30 1136,-30 1136,-10 1116,-10"/>
<text text-anchor="start" x="1139.6732" y="-15.4" font-family="sans-serif" font-size="14.00" fill="#000000"> &#160;Providers</text>
<polygon fill="#fb8072" stroke="transparent" points="1212,-10 1212,-30 1232,-30 1232,-10 1212,-10"/>
<text text-anchor="start" x="1235.7258" y="-15.4" font-family="sans-serif" font-size="14.00" fill="#000000"> &#160;Exports</text>
<g id="clust1" class="cluster">
<title>cluster_AdminModule</title>
<polygon fill="none" stroke="#000000" stroke-dasharray="1,5" points="8,-70 8,-268 2100,-268 2100,-70 8,-70"/>
</g>
<g id="clust2" class="cluster">
<title>cluster_AdminModule_declarations</title>
<polygon fill="none" stroke="#000000" points="282,-78 282,-130 2092,-130 2092,-78 282,-78"/>
</g>
<g id="clust14" class="cluster">
<title>cluster_AdminModule_imports</title>
<polygon fill="none" stroke="#000000" points="16,-78 16,-130 274,-130 274,-78 16,-78"/>
</g>
<g id="clust15" class="cluster">
<title>cluster_AdminModule_exports</title>
<polygon fill="none" stroke="#000000" points="969,-208 969,-260 1109,-260 1109,-208 969,-208"/>
</g>
<!-- AdminComponent -->
<g id="node1" class="node">
<title>AdminComponent</title>
<polygon fill="#ffffb3" stroke="#000000" points="2084.2204,-122 1963.7796,-122 1963.7796,-86 2084.2204,-86 2084.2204,-122"/>
<text text-anchor="middle" x="2024" y="-99.8" font-family="Times,serif" font-size="14.00" fill="#000000">AdminComponent</text>
</g>
<!-- AdminModule -->
<g id="node12" class="node">
<title>AdminModule</title>
<polygon fill="#8dd3c7" stroke="#000000" points="1088.4386,-187 1085.4386,-191 1064.4386,-191 1061.4386,-187 989.5614,-187 989.5614,-151 1088.4386,-151 1088.4386,-187"/>
<text text-anchor="middle" x="1039" y="-164.8" font-family="Times,serif" font-size="14.00" fill="#000000">AdminModule</text>
</g>
<!-- AdminComponent&#45;&gt;AdminModule -->
<g id="edge1" class="edge">
<title>AdminComponent&#45;&gt;AdminModule</title>
<path fill="none" stroke="#000000" d="M2024,-122.3228C2024,-145.6602 2024,-183 2024,-183 2024,-183 1098.5213,-183 1098.5213,-183"/>
<polygon fill="#000000" stroke="#000000" points="1098.5214,-179.5001 1088.5213,-183 1098.5213,-186.5001 1098.5214,-179.5001"/>
</g>
<!-- UsersTabComponent -->
<g id="node2" class="node">
<title>UsersTabComponent</title>
<polygon fill="#ffffb3" stroke="#000000" points="1945.4706,-122 1810.5294,-122 1810.5294,-86 1945.4706,-86 1945.4706,-122"/>
<text text-anchor="middle" x="1878" y="-99.8" font-family="Times,serif" font-size="14.00" fill="#000000">UsersTabComponent</text>
</g>
<!-- UsersTabComponent&#45;&gt;AdminModule -->
<g id="edge2" class="edge">
<title>UsersTabComponent&#45;&gt;AdminModule</title>
<path fill="none" stroke="#000000" d="M1878,-122.2921C1878,-144.2057 1878,-178 1878,-178 1878,-178 1098.351,-178 1098.351,-178"/>
<polygon fill="#000000" stroke="#000000" points="1098.351,-174.5001 1088.351,-178 1098.3509,-181.5001 1098.351,-174.5001"/>
</g>
<!-- UserCardComponent -->
<g id="node3" class="node">
<title>UserCardComponent</title>
<polygon fill="#ffffb3" stroke="#000000" points="1792.4706,-122 1657.5294,-122 1657.5294,-86 1792.4706,-86 1792.4706,-122"/>
<text text-anchor="middle" x="1725" y="-99.8" font-family="Times,serif" font-size="14.00" fill="#000000">UserCardComponent</text>
</g>
<!-- UserCardComponent&#45;&gt;AdminModule -->
<g id="edge3" class="edge">
<title>UserCardComponent&#45;&gt;AdminModule</title>
<path fill="none" stroke="#000000" d="M1725,-122.0267C1725,-142.7672 1725,-174 1725,-174 1725,-174 1098.3354,-174 1098.3354,-174"/>
<polygon fill="#000000" stroke="#000000" points="1098.3355,-170.5001 1088.3354,-174 1098.3354,-177.5001 1098.3355,-170.5001"/>
</g>
<!-- UserFormComponent -->
<g id="node4" class="node">
<title>UserFormComponent</title>
<polygon fill="#ffffb3" stroke="#000000" points="1639.0926,-122 1500.9074,-122 1500.9074,-86 1639.0926,-86 1639.0926,-122"/>
<text text-anchor="middle" x="1570" y="-99.8" font-family="Times,serif" font-size="14.00" fill="#000000">UserFormComponent</text>
</g>
<!-- UserFormComponent&#45;&gt;AdminModule -->
<g id="edge4" class="edge">
<title>UserFormComponent&#45;&gt;AdminModule</title>
<path fill="none" stroke="#000000" d="M1570,-122.1061C1570,-141.3391 1570,-169 1570,-169 1570,-169 1098.4784,-169 1098.4784,-169"/>
<polygon fill="#000000" stroke="#000000" points="1098.4784,-165.5001 1088.4784,-169 1098.4783,-172.5001 1098.4784,-165.5001"/>
</g>
<!-- UsersListComponent -->
<g id="node5" class="node">
<title>UsersListComponent</title>
<polygon fill="#ffffb3" stroke="#000000" points="1482.4818,-122 1347.5182,-122 1347.5182,-86 1482.4818,-86 1482.4818,-122"/>
<text text-anchor="middle" x="1415" y="-99.8" font-family="Times,serif" font-size="14.00" fill="#000000">UsersListComponent</text>
</g>
<!-- UsersListComponent&#45;&gt;AdminModule -->
<g id="edge5" class="edge">
<title>UsersListComponent&#45;&gt;AdminModule</title>
<path fill="none" stroke="#000000" d="M1415,-122.302C1415,-140.2699 1415,-165 1415,-165 1415,-165 1098.5421,-165 1098.5421,-165"/>
<polygon fill="#000000" stroke="#000000" points="1098.5421,-161.5001 1088.5421,-165 1098.542,-168.5001 1098.5421,-161.5001"/>
</g>
<!-- OrganizationsTabComponent -->
<g id="node6" class="node">
<title>OrganizationsTabComponent</title>
<polygon fill="#ffffb3" stroke="#000000" points="1329.6274,-122 1148.3726,-122 1148.3726,-86 1329.6274,-86 1329.6274,-122"/>
<text text-anchor="middle" x="1239" y="-99.8" font-family="Times,serif" font-size="14.00" fill="#000000">OrganizationsTabComponent</text>
</g>
<!-- OrganizationsTabComponent&#45;&gt;AdminModule -->
<g id="edge6" class="edge">
<title>OrganizationsTabComponent&#45;&gt;AdminModule</title>
<path fill="none" stroke="#000000" d="M1208.7288,-122.1871C1208.7288,-137.1824 1208.7288,-156 1208.7288,-156 1208.7288,-156 1098.5489,-156 1098.5489,-156"/>
<polygon fill="#000000" stroke="#000000" points="1098.5489,-152.5001 1088.5489,-156 1098.5488,-159.5001 1098.5489,-152.5001"/>
</g>
<!-- OrganizationsTabComponent&#45;&gt;AdminModule -->
<g id="edge10" class="edge">
<title>OrganizationsTabComponent&#45;&gt;AdminModule</title>
<path fill="none" stroke="#000000" d="M1269.2712,-122.027C1269.2712,-138.3976 1269.2712,-160 1269.2712,-160 1269.2712,-160 1098.3989,-160 1098.3989,-160"/>
<polygon fill="#000000" stroke="#000000" points="1098.399,-156.5001 1088.3989,-160 1098.3989,-163.5001 1098.399,-156.5001"/>
</g>
<!-- OrganizationsListComponent -->
<g id="node7" class="node">
<title>OrganizationsListComponent</title>
<polygon fill="#ffffb3" stroke="#000000" points="1129.6386,-122 948.3614,-122 948.3614,-86 1129.6386,-86 1129.6386,-122"/>
<text text-anchor="middle" x="1039" y="-99.8" font-family="Times,serif" font-size="14.00" fill="#000000">OrganizationsListComponent</text>
</g>
<!-- OrganizationsListComponent&#45;&gt;AdminModule -->
<g id="edge7" class="edge">
<title>OrganizationsListComponent&#45;&gt;AdminModule</title>
<path fill="none" stroke="#000000" d="M1055.4063,-122.1061C1055.4063,-122.1061 1055.4063,-140.991 1055.4063,-140.991"/>
<polygon fill="#000000" stroke="#000000" points="1051.9064,-140.9909 1055.4063,-150.991 1058.9064,-140.991 1051.9064,-140.9909"/>
</g>
<!-- OrganizationsListComponent&#45;&gt;AdminModule -->
<g id="edge11" class="edge">
<title>OrganizationsListComponent&#45;&gt;AdminModule</title>
<path fill="none" stroke="#000000" d="M1022.5937,-122.1061C1022.5937,-122.1061 1022.5937,-140.991 1022.5937,-140.991"/>
<polygon fill="#000000" stroke="#000000" points="1019.0938,-140.9909 1022.5937,-150.991 1026.0938,-140.991 1019.0938,-140.9909"/>
</g>
<!-- GsfaInputComponent -->
<g id="node8" class="node">
<title>GsfaInputComponent</title>
<polygon fill="#ffffb3" stroke="#000000" points="930.8104,-122 793.1896,-122 793.1896,-86 930.8104,-86 930.8104,-122"/>
<text text-anchor="middle" x="862" y="-99.8" font-family="Times,serif" font-size="14.00" fill="#000000">GsfaInputComponent</text>
</g>
<!-- GsfaInputComponent&#45;&gt;AdminModule -->
<g id="edge8" class="edge">
<title>GsfaInputComponent&#45;&gt;AdminModule</title>
<path fill="none" stroke="#000000" d="M862,-122.2396C862,-137.5706 862,-157 862,-157 862,-157 979.6956,-157 979.6956,-157"/>
<polygon fill="#000000" stroke="#000000" points="979.6957,-160.5001 989.6956,-157 979.6956,-153.5001 979.6957,-160.5001"/>
</g>
<!-- GsfasComponent -->
<g id="node9" class="node">
<title>GsfasComponent</title>
<polygon fill="#ffffb3" stroke="#000000" points="775.7036,-122 662.2964,-122 662.2964,-86 775.7036,-86 775.7036,-122"/>
<text text-anchor="middle" x="719" y="-99.8" font-family="Times,serif" font-size="14.00" fill="#000000">GsfasComponent</text>
</g>
<!-- GsfasComponent&#45;&gt;AdminModule -->
<g id="edge9" class="edge">
<title>GsfasComponent&#45;&gt;AdminModule</title>
<path fill="none" stroke="#000000" d="M719,-122.0336C719,-139.0597 719,-162 719,-162 719,-162 979.7013,-162 979.7013,-162"/>
<polygon fill="#000000" stroke="#000000" points="979.7013,-165.5001 989.7013,-162 979.7013,-158.5001 979.7013,-165.5001"/>
</g>
<!-- UserDeleteComponent -->
<g id="node10" class="node">
<title>UserDeleteComponent</title>
<polygon fill="#ffffb3" stroke="#000000" points="644.2907,-122 499.7093,-122 499.7093,-86 644.2907,-86 644.2907,-122"/>
<text text-anchor="middle" x="572" y="-99.8" font-family="Times,serif" font-size="14.00" fill="#000000">UserDeleteComponent</text>
</g>
<!-- UserDeleteComponent&#45;&gt;AdminModule -->
<g id="edge12" class="edge">
<title>UserDeleteComponent&#45;&gt;AdminModule</title>
<path fill="none" stroke="#000000" d="M572,-122.2222C572,-140.8285 572,-167 572,-167 572,-167 979.4649,-167 979.4649,-167"/>
<polygon fill="#000000" stroke="#000000" points="979.465,-170.5001 989.4649,-167 979.4649,-163.5001 979.465,-170.5001"/>
</g>
<!-- OrganizationsTableComponent -->
<g id="node11" class="node">
<title>OrganizationsTableComponent</title>
<polygon fill="#ffffb3" stroke="#000000" points="481.7324,-122 290.2676,-122 290.2676,-86 481.7324,-86 481.7324,-122"/>
<text text-anchor="middle" x="386" y="-99.8" font-family="Times,serif" font-size="14.00" fill="#000000">OrganizationsTableComponent</text>
</g>
<!-- OrganizationsTableComponent&#45;&gt;AdminModule -->
<g id="edge13" class="edge">
<title>OrganizationsTableComponent&#45;&gt;AdminModule</title>
<path fill="none" stroke="#000000" d="M386,-122.2228C386,-142.3652 386,-172 386,-172 386,-172 979.6512,-172 979.6512,-172"/>
<polygon fill="#000000" stroke="#000000" points="979.6512,-175.5001 989.6512,-172 979.6512,-168.5001 979.6512,-175.5001"/>
</g>
<!-- AdminComponent  -->
<g id="node15" class="node">
<title>AdminComponent </title>
<polygon fill="#fb8072" stroke="#000000" points="1100.7205,-252 977.2795,-252 977.2795,-216 1100.7205,-216 1100.7205,-252"/>
<text text-anchor="middle" x="1039" y="-229.8" font-family="Times,serif" font-size="14.00" fill="#000000">AdminComponent </text>
</g>
<!-- AdminModule&#45;&gt;AdminComponent  -->
<g id="edge16" class="edge">
<title>AdminModule&#45;&gt;AdminComponent </title>
<path fill="none" stroke="#000000" stroke-dasharray="5,2" d="M1039,-187.1061C1039,-187.1061 1039,-205.991 1039,-205.991"/>
<polygon fill="#000000" stroke="#000000" points="1035.5001,-205.9909 1039,-215.991 1042.5001,-205.991 1035.5001,-205.9909"/>
</g>
<!-- SharedModule -->
<g id="node13" class="node">
<title>SharedModule</title>
<polygon fill="#8dd3c7" stroke="#000000" points="266.4231,-122 263.4231,-126 242.4231,-126 239.4231,-122 167.5769,-122 167.5769,-86 266.4231,-86 266.4231,-122"/>
<text text-anchor="middle" x="217" y="-99.8" font-family="Times,serif" font-size="14.00" fill="#000000">SharedModule</text>
</g>
<!-- SharedModule&#45;&gt;AdminModule -->
<g id="edge14" class="edge">
<title>SharedModule&#45;&gt;AdminModule</title>
<path fill="none" stroke="#000000" d="M217,-122.0449C217,-143.6623 217,-177 217,-177 217,-177 979.737,-177 979.737,-177"/>
<polygon fill="#000000" stroke="#000000" points="979.737,-180.5001 989.737,-177 979.737,-173.5001 979.737,-180.5001"/>
</g>
<!-- CoreSharedModule -->
<g id="node14" class="node">
<title>CoreSharedModule</title>
<polygon fill="#8dd3c7" stroke="#000000" points="149.6345,-122 146.6345,-126 125.6345,-126 122.6345,-122 24.3655,-122 24.3655,-86 149.6345,-86 149.6345,-122"/>
<text text-anchor="middle" x="87" y="-99.8" font-family="Times,serif" font-size="14.00" fill="#000000">CoreSharedModule</text>
</g>
<!-- CoreSharedModule&#45;&gt;AdminModule -->
<g id="edge15" class="edge">
<title>CoreSharedModule&#45;&gt;AdminModule</title>
<path fill="none" stroke="#000000" d="M87,-122.0908C87,-145.1328 87,-182 87,-182 87,-182 979.4894,-182 979.4894,-182"/>
<polygon fill="#000000" stroke="#000000" points="979.4894,-185.5001 989.4894,-182 979.4893,-178.5001 979.4894,-185.5001"/>
</g>
</g>
</svg>
