<?xml version="1.0" encoding="UTF-8" standalone="no"?>
<!DOCTYPE svg PUBLIC "-//W3C//DTD SVG 1.1//EN"
 "http://www.w3.org/Graphics/SVG/1.1/DTD/svg11.dtd">
<!-- Generated by graphviz version 2.40.1 (20161225.0304)
 -->
<!-- Title: dependencies Pages: 1 -->
<svg width="964pt" height="284pt"
 viewBox="0.00 0.00 964.00 284.00" xmlns="http://www.w3.org/2000/svg" xmlns:xlink="http://www.w3.org/1999/xlink">
<g id="graph0" class="graph" transform="scale(1 1) rotate(0) translate(4 280)">
<title>dependencies</title>
<polygon fill="#ffffff" stroke="transparent" points="-4,4 -4,-280 960,-280 960,4 -4,4"/>
<text text-anchor="start" x="457.0091" y="-42.4" font-family="sans-serif" font-weight="bold" font-size="14.00" fill="#000000">Legend</text>
<polygon fill="#ffffb3" stroke="transparent" points="244,-10 244,-30 264,-30 264,-10 244,-10"/>
<text text-anchor="start" x="267.629" y="-15.4" font-family="sans-serif" font-size="14.00" fill="#000000"> &#160;Declarations</text>
<polygon fill="#8dd3c7" stroke="transparent" points="357,-10 357,-30 377,-30 377,-10 357,-10"/>
<text text-anchor="start" x="380.7251" y="-15.4" font-family="sans-serif" font-size="14.00" fill="#000000"> &#160;Module</text>
<polygon fill="#80b1d3" stroke="transparent" points="443,-10 443,-30 463,-30 463,-10 443,-10"/>
<text text-anchor="start" x="466.7812" y="-15.4" font-family="sans-serif" font-size="14.00" fill="#000000"> &#160;Bootstrap</text>
<polygon fill="#fdb462" stroke="transparent" points="540,-10 540,-30 560,-30 560,-10 540,-10"/>
<text text-anchor="start" x="563.6732" y="-15.4" font-family="sans-serif" font-size="14.00" fill="#000000"> &#160;Providers</text>
<polygon fill="#fb8072" stroke="transparent" points="636,-10 636,-30 656,-30 656,-10 636,-10"/>
<text text-anchor="start" x="659.7258" y="-15.4" font-family="sans-serif" font-size="14.00" fill="#000000"> &#160;Exports</text>
<g id="clust1" class="cluster">
<title>cluster_AppModule</title>
<polygon fill="none" stroke="#000000" stroke-dasharray="1,5" points="8,-70 8,-268 948,-268 948,-70 8,-70"/>
</g>
<g id="clust2" class="cluster">
<title>cluster_AppModule_declarations</title>
<polygon fill="none" stroke="#000000" points="818,-78 818,-130 940,-130 940,-78 818,-78"/>
</g>
<g id="clust4" class="cluster">
<title>cluster_AppModule_imports</title>
<polygon fill="none" stroke="#000000" points="16,-78 16,-130 810,-130 810,-78 16,-78"/>
</g>
<g id="clust6" class="cluster">
<title>cluster_AppModule_bootstrap</title>
<polygon fill="none" stroke="#000000" points="419,-208 419,-260 543,-260 543,-208 419,-208"/>
</g>
<!-- AppComponent -->
<g id="node1" class="node">
<title>AppComponent</title>
<polygon fill="#ffffb3" stroke="#000000" points="931.9399,-122 826.0601,-122 826.0601,-86 931.9399,-86 931.9399,-122"/>
<text text-anchor="middle" x="879" y="-99.8" font-family="Times,serif" font-size="14.00" fill="#000000">AppComponent</text>
</g>
<!-- AppModule -->
<g id="node2" class="node">
<title>AppModule</title>
<polygon fill="#8dd3c7" stroke="#000000" points="522.6571,-187 519.6571,-191 498.6571,-191 495.6571,-187 439.3429,-187 439.3429,-151 522.6571,-151 522.6571,-187"/>
<text text-anchor="middle" x="481" y="-164.8" font-family="Times,serif" font-size="14.00" fill="#000000">AppModule</text>
</g>
<!-- AppComponent&#45;&gt;AppModule -->
<g id="edge1" class="edge">
<title>AppComponent&#45;&gt;AppModule</title>
<path fill="none" stroke="#000000" d="M879,-122.2921C879,-144.2057 879,-178 879,-178 879,-178 532.8407,-178 532.8407,-178"/>
<polygon fill="#000000" stroke="#000000" points="532.8408,-174.5001 522.8407,-178 532.8407,-181.5001 532.8408,-174.5001"/>
</g>
<!-- AppComponent  -->
<g id="node9" class="node">
<title>AppComponent </title>
<polygon fill="#80b1d3" stroke="#000000" points="535.439,-252 426.561,-252 426.561,-216 535.439,-216 535.439,-252"/>
<text text-anchor="middle" x="481" y="-229.8" font-family="Times,serif" font-size="14.00" fill="#000000">AppComponent </text>
</g>
<!-- AppModule&#45;&gt;AppComponent  -->
<g id="edge8" class="edge">
<title>AppModule&#45;&gt;AppComponent </title>
<path fill="none" stroke="#000000" stroke-dasharray="1,5" d="M481,-187.1061C481,-187.1061 481,-205.991 481,-205.991"/>
<polygon fill="#000000" stroke="#000000" points="477.5001,-205.9909 481,-215.991 484.5001,-205.991 477.5001,-205.9909"/>
</g>
<!-- AppRoutingModule -->
<g id="node3" class="node">
<title>AppRoutingModule</title>
<polygon fill="#8dd3c7" stroke="#000000" points="802.2744,-122 799.2744,-126 778.2744,-126 775.2744,-122 673.7256,-122 673.7256,-86 802.2744,-86 802.2744,-122"/>
<text text-anchor="middle" x="738" y="-99.8" font-family="Times,serif" font-size="14.00" fill="#000000">AppRoutingModule</text>
</g>
<!-- AppRoutingModule&#45;&gt;AppModule -->
<g id="edge2" class="edge">
<title>AppRoutingModule&#45;&gt;AppModule</title>
<path fill="none" stroke="#000000" d="M738,-122.1061C738,-141.3391 738,-169 738,-169 738,-169 532.8635,-169 532.8635,-169"/>
<polygon fill="#000000" stroke="#000000" points="532.8635,-165.5001 522.8635,-169 532.8634,-172.5001 532.8635,-165.5001"/>
</g>
<!-- SharedModule -->
<g id="node4" class="node">
<title>SharedModule</title>
<polygon fill="#8dd3c7" stroke="#000000" points="655.4231,-122 652.4231,-126 631.4231,-126 628.4231,-122 556.5769,-122 556.5769,-86 655.4231,-86 655.4231,-122"/>
<text text-anchor="middle" x="606" y="-99.8" font-family="Times,serif" font-size="14.00" fill="#000000">SharedModule</text>
</g>
<!-- SharedModule&#45;&gt;AppModule -->
<g id="edge3" class="edge">
<title>SharedModule&#45;&gt;AppModule</title>
<path fill="none" stroke="#000000" d="M606,-122.027C606,-138.3976 606,-160 606,-160 606,-160 532.9709,-160 532.9709,-160"/>
<polygon fill="#000000" stroke="#000000" points="532.971,-156.5001 522.9709,-160 532.9709,-163.5001 532.971,-156.5001"/>
</g>
<!-- NotFoundModule -->
<g id="node5" class="node">
<title>NotFoundModule</title>
<polygon fill="#8dd3c7" stroke="#000000" points="539.3301,-122 536.3301,-126 515.3301,-126 512.3301,-122 422.6699,-122 422.6699,-86 539.3301,-86 539.3301,-122"/>
<text text-anchor="middle" x="481" y="-99.8" font-family="Times,serif" font-size="14.00" fill="#000000">NotFoundModule</text>
</g>
<!-- NotFoundModule&#45;&gt;AppModule -->
<g id="edge4" class="edge">
<title>NotFoundModule&#45;&gt;AppModule</title>
<path fill="none" stroke="#000000" d="M481,-122.1061C481,-122.1061 481,-140.991 481,-140.991"/>
<polygon fill="#000000" stroke="#000000" points="477.5001,-140.9909 481,-150.991 484.5001,-140.991 477.5001,-140.9909"/>
</g>
<!-- ForbiddenModule -->
<g id="node6" class="node">
<title>ForbiddenModule</title>
<polygon fill="#8dd3c7" stroke="#000000" points="404.5982,-122 401.5982,-126 380.5982,-126 377.5982,-122 287.4018,-122 287.4018,-86 404.5982,-86 404.5982,-122"/>
<text text-anchor="middle" x="346" y="-99.8" font-family="Times,serif" font-size="14.00" fill="#000000">ForbiddenModule</text>
</g>
<!-- ForbiddenModule&#45;&gt;AppModule -->
<g id="edge5" class="edge">
<title>ForbiddenModule&#45;&gt;AppModule</title>
<path fill="none" stroke="#000000" d="M346,-122.027C346,-138.3976 346,-160 346,-160 346,-160 429.0252,-160 429.0252,-160"/>
<polygon fill="#000000" stroke="#000000" points="429.0252,-163.5001 439.0252,-160 429.0251,-156.5001 429.0252,-163.5001"/>
</g>
<!-- IdpAuthorizedModule -->
<g id="node7" class="node">
<title>IdpAuthorizedModule</title>
<polygon fill="#8dd3c7" stroke="#000000" points="269.6881,-122 266.6881,-126 245.6881,-126 242.6881,-122 128.3119,-122 128.3119,-86 269.6881,-86 269.6881,-122"/>
<text text-anchor="middle" x="199" y="-99.8" font-family="Times,serif" font-size="14.00" fill="#000000">IdpAuthorizedModule</text>
</g>
<!-- IdpAuthorizedModule&#45;&gt;AppModule -->
<g id="edge6" class="edge">
<title>IdpAuthorizedModule&#45;&gt;AppModule</title>
<path fill="none" stroke="#000000" d="M199,-122.1061C199,-141.3391 199,-169 199,-169 199,-169 429.0863,-169 429.0863,-169"/>
<polygon fill="#000000" stroke="#000000" points="429.0863,-172.5001 439.0863,-169 429.0862,-165.5001 429.0863,-172.5001"/>
</g>
<!-- CoreModule -->
<g id="node8" class="node">
<title>CoreModule</title>
<polygon fill="#8dd3c7" stroke="#000000" points="110.2619,-122 107.2619,-126 86.2619,-126 83.2619,-122 23.7381,-122 23.7381,-86 110.2619,-86 110.2619,-122"/>
<text text-anchor="middle" x="67" y="-99.8" font-family="Times,serif" font-size="14.00" fill="#000000">CoreModule</text>
</g>
<!-- CoreModule&#45;&gt;AppModule -->
<g id="edge7" class="edge">
<title>CoreModule&#45;&gt;AppModule</title>
<path fill="none" stroke="#000000" d="M67,-122.2921C67,-144.2057 67,-178 67,-178 67,-178 429.0252,-178 429.0252,-178"/>
<polygon fill="#000000" stroke="#000000" points="429.0252,-181.5001 439.0252,-178 429.0251,-174.5001 429.0252,-181.5001"/>
</g>
</g>
</svg>
