<?xml version="1.0" encoding="UTF-8" standalone="no"?>
<!DOCTYPE svg PUBLIC "-//W3C//DTD SVG 1.1//EN"
 "http://www.w3.org/Graphics/SVG/1.1/DTD/svg11.dtd">
<!-- Generated by graphviz version 2.40.1 (20161225.0304)
 -->
<!-- Title: dependencies Pages: 1 -->
<svg width="1479pt" height="211pt"
 viewBox="0.00 0.00 1479.00 211.00" xmlns="http://www.w3.org/2000/svg" xmlns:xlink="http://www.w3.org/1999/xlink">
<g id="graph0" class="graph" transform="scale(1 1) rotate(0) translate(4 207)">
<title>dependencies</title>
<polygon fill="#ffffff" stroke="transparent" points="-4,4 -4,-207 1475,-207 1475,4 -4,4"/>
<text text-anchor="start" x="714.5091" y="-42.4" font-family="sans-serif" font-weight="bold" font-size="14.00" fill="#000000">Legend</text>
<polygon fill="#ffffb3" stroke="transparent" points="501.5,-10 501.5,-30 521.5,-30 521.5,-10 501.5,-10"/>
<text text-anchor="start" x="525.129" y="-15.4" font-family="sans-serif" font-size="14.00" fill="#000000"> &#160;Declarations</text>
<polygon fill="#8dd3c7" stroke="transparent" points="614.5,-10 614.5,-30 634.5,-30 634.5,-10 614.5,-10"/>
<text text-anchor="start" x="638.2251" y="-15.4" font-family="sans-serif" font-size="14.00" fill="#000000"> &#160;Module</text>
<polygon fill="#80b1d3" stroke="transparent" points="700.5,-10 700.5,-30 720.5,-30 720.5,-10 700.5,-10"/>
<text text-anchor="start" x="724.2812" y="-15.4" font-family="sans-serif" font-size="14.00" fill="#000000"> &#160;Bootstrap</text>
<polygon fill="#fdb462" stroke="transparent" points="797.5,-10 797.5,-30 817.5,-30 817.5,-10 797.5,-10"/>
<text text-anchor="start" x="821.1732" y="-15.4" font-family="sans-serif" font-size="14.00" fill="#000000"> &#160;Providers</text>
<polygon fill="#fb8072" stroke="transparent" points="893.5,-10 893.5,-30 913.5,-30 913.5,-10 893.5,-10"/>
<text text-anchor="start" x="917.2258" y="-15.4" font-family="sans-serif" font-size="14.00" fill="#000000"> &#160;Exports</text>
<g id="clust1" class="cluster">
<title>cluster_SharedServicesModule</title>
<polygon fill="none" stroke="#000000" stroke-dasharray="1,5" points="8,-70 8,-195 1463,-195 1463,-70 8,-70"/>
</g>
<g id="clust6" class="cluster">
<title>cluster_SharedServicesModule_providers</title>
<polygon fill="none" stroke="#000000" points="16,-78 16,-130 1455,-130 1455,-78 16,-78"/>
</g>
<!-- TaskService -->
<g id="node1" class="node">
<title>TaskService</title>
<ellipse fill="#fdb462" stroke="#000000" cx="1388" cy="-104" rx="58.5251" ry="18"/>
<text text-anchor="middle" x="1388" y="-99.8" font-family="Times,serif" font-size="14.00" fill="#000000">TaskService</text>
</g>
<!-- SharedServicesModule -->
<g id="node11" class="node">
<title>SharedServicesModule</title>
<polygon fill="#8dd3c7" stroke="#000000" points="816.8445,-187 813.8445,-191 792.8445,-191 789.8445,-187 671.1555,-187 671.1555,-151 816.8445,-151 816.8445,-187"/>
<text text-anchor="middle" x="744" y="-164.8" font-family="Times,serif" font-size="14.00" fill="#000000">SharedServicesModule</text>
</g>
<!-- TaskService&#45;&gt;SharedServicesModule -->
<g id="edge1" class="edge">
<title>TaskService&#45;&gt;SharedServicesModule</title>
<path fill="none" stroke="#000000" d="M1388,-122.0109C1388,-144.4852 1388,-180 1388,-180 1388,-180 826.9353,-180 826.9353,-180"/>
<polygon fill="#000000" stroke="#000000" points="826.9353,-176.5001 816.9353,-180 826.9353,-183.5001 826.9353,-176.5001"/>
</g>
<!-- AuthService -->
<g id="node2" class="node">
<title>AuthService</title>
<ellipse fill="#fdb462" stroke="#000000" cx="1252" cy="-104" rx="59.1083" ry="18"/>
<text text-anchor="middle" x="1252" y="-99.8" font-family="Times,serif" font-size="14.00" fill="#000000">AuthService</text>
</g>
<!-- AuthService&#45;&gt;SharedServicesModule -->
<g id="edge2" class="edge">
<title>AuthService&#45;&gt;SharedServicesModule</title>
<path fill="none" stroke="#000000" d="M1252,-122.1289C1252,-142.5724 1252,-173 1252,-173 1252,-173 827.0543,-173 827.0543,-173"/>
<polygon fill="#000000" stroke="#000000" points="827.0544,-169.5001 817.0543,-173 827.0543,-176.5001 827.0544,-169.5001"/>
</g>
<!-- SessionService -->
<g id="node3" class="node">
<title>SessionService</title>
<ellipse fill="#fdb462" stroke="#000000" cx="1105" cy="-104" rx="69.4974" ry="18"/>
<text text-anchor="middle" x="1105" y="-99.8" font-family="Times,serif" font-size="14.00" fill="#000000">SessionService</text>
</g>
<!-- SessionService&#45;&gt;SharedServicesModule -->
<g id="edge3" class="edge">
<title>SessionService&#45;&gt;SharedServicesModule</title>
<path fill="none" stroke="#000000" d="M1105,-122.2667C1105,-140.5552 1105,-166 1105,-166 1105,-166 827.0537,-166 827.0537,-166"/>
<polygon fill="#000000" stroke="#000000" points="827.0538,-162.5001 817.0537,-166 827.0537,-169.5001 827.0538,-162.5001"/>
</g>
<!-- WaitService -->
<g id="node4" class="node">
<title>WaitService</title>
<ellipse fill="#fdb462" stroke="#000000" cx="959" cy="-104" rx="58.5232" ry="18"/>
<text text-anchor="middle" x="959" y="-99.8" font-family="Times,serif" font-size="14.00" fill="#000000">WaitService</text>
</g>
<!-- WaitService&#45;&gt;SharedServicesModule -->
<g id="edge4" class="edge">
<title>WaitService&#45;&gt;SharedServicesModule</title>
<path fill="none" stroke="#000000" d="M959,-122.0091C959,-138.0494 959,-159 959,-159 959,-159 827.0892,-159 827.0892,-159"/>
<polygon fill="#000000" stroke="#000000" points="827.0892,-155.5001 817.0892,-159 827.0892,-162.5001 827.0892,-155.5001"/>
</g>
<!-- ErrorService -->
<g id="node5" class="node">
<title>ErrorService</title>
<ellipse fill="#fdb462" stroke="#000000" cx="822" cy="-104" rx="60.2287" ry="18"/>
<text text-anchor="middle" x="822" y="-99.8" font-family="Times,serif" font-size="14.00" fill="#000000">ErrorService</text>
</g>
<!-- ErrorService&#45;&gt;SharedServicesModule -->
<g id="edge5" class="edge">
<title>ErrorService&#45;&gt;SharedServicesModule</title>
<path fill="none" stroke="#000000" d="M789.279,-119.4041C789.279,-119.4041 789.279,-140.9397 789.279,-140.9397"/>
<polygon fill="#000000" stroke="#000000" points="785.7791,-140.9397 789.279,-150.9397 792.7791,-140.9398 785.7791,-140.9397"/>
</g>
<!-- LanguageService -->
<g id="node6" class="node">
<title>LanguageService</title>
<ellipse fill="#fdb462" stroke="#000000" cx="666" cy="-104" rx="78.1308" ry="18"/>
<text text-anchor="middle" x="666" y="-99.8" font-family="Times,serif" font-size="14.00" fill="#000000">LanguageService</text>
</g>
<!-- LanguageService&#45;&gt;SharedServicesModule -->
<g id="edge6" class="edge">
<title>LanguageService&#45;&gt;SharedServicesModule</title>
<path fill="none" stroke="#000000" d="M707.5716,-119.4041C707.5716,-119.4041 707.5716,-140.9397 707.5716,-140.9397"/>
<polygon fill="#000000" stroke="#000000" points="704.0717,-140.9397 707.5716,-150.9397 711.0717,-140.9398 704.0717,-140.9397"/>
</g>
<!-- ConfigService -->
<g id="node7" class="node">
<title>ConfigService</title>
<ellipse fill="#fdb462" stroke="#000000" cx="503" cy="-104" rx="66.6325" ry="18"/>
<text text-anchor="middle" x="503" y="-99.8" font-family="Times,serif" font-size="14.00" fill="#000000">ConfigService</text>
</g>
<!-- ConfigService&#45;&gt;SharedServicesModule -->
<g id="edge7" class="edge">
<title>ConfigService&#45;&gt;SharedServicesModule</title>
<path fill="none" stroke="#000000" d="M503,-122.0091C503,-138.0494 503,-159 503,-159 503,-159 661.038,-159 661.038,-159"/>
<polygon fill="#000000" stroke="#000000" points="661.0381,-162.5001 671.038,-159 661.038,-155.5001 661.0381,-162.5001"/>
</g>
<!-- RestService -->
<g id="node8" class="node">
<title>RestService</title>
<ellipse fill="#fdb462" stroke="#000000" cx="361" cy="-104" rx="57.3166" ry="18"/>
<text text-anchor="middle" x="361" y="-99.8" font-family="Times,serif" font-size="14.00" fill="#000000">RestService</text>
</g>
<!-- RestService&#45;&gt;SharedServicesModule -->
<g id="edge8" class="edge">
<title>RestService&#45;&gt;SharedServicesModule</title>
<path fill="none" stroke="#000000" d="M361,-122.2667C361,-140.5552 361,-166 361,-166 361,-166 661.0591,-166 661.0591,-166"/>
<polygon fill="#000000" stroke="#000000" points="661.0592,-169.5001 671.0591,-166 661.0591,-162.5001 661.0592,-169.5001"/>
</g>
<!-- UserService -->
<g id="node9" class="node">
<title>UserService</title>
<ellipse fill="#fdb462" stroke="#000000" cx="228" cy="-104" rx="58.4415" ry="18"/>
<text text-anchor="middle" x="228" y="-99.8" font-family="Times,serif" font-size="14.00" fill="#000000">UserService</text>
</g>
<!-- UserService&#45;&gt;SharedServicesModule -->
<g id="edge9" class="edge">
<title>UserService&#45;&gt;SharedServicesModule</title>
<path fill="none" stroke="#000000" d="M228,-122.1289C228,-142.5724 228,-173 228,-173 228,-173 660.8912,-173 660.8912,-173"/>
<polygon fill="#000000" stroke="#000000" points="660.8912,-176.5001 670.8912,-173 660.8911,-169.5001 660.8912,-176.5001"/>
</g>
<!-- UserResolver -->
<g id="node10" class="node">
<title>UserResolver</title>
<ellipse fill="#fdb462" stroke="#000000" cx="88" cy="-104" rx="63.6793" ry="18"/>
<text text-anchor="middle" x="88" y="-99.8" font-family="Times,serif" font-size="14.00" fill="#000000">UserResolver</text>
</g>
<!-- UserResolver&#45;&gt;SharedServicesModule -->
<g id="edge10" class="edge">
<title>UserResolver&#45;&gt;SharedServicesModule</title>
<path fill="none" stroke="#000000" d="M88,-122.0109C88,-144.4852 88,-180 88,-180 88,-180 660.9743,-180 660.9743,-180"/>
<polygon fill="#000000" stroke="#000000" points="660.9743,-183.5001 670.9743,-180 660.9743,-176.5001 660.9743,-183.5001"/>
</g>
</g>
</svg>
